<svg xmlns="http://www.w3.org/2000/svg" viewBox="0 0 2114.27 670.93"><defs><style>.cls-1,.cls-12{fill:#fff;}.cls-2,.cls-3,.cls-9{fill:none;}.cls-10,.cls-2,.cls-3{stroke:#000;}.cls-10,.cls-11,.cls-12,.cls-2,.cls-3,.cls-9{stroke-miterlimit:10;}.cls-2{stroke-width:3px;}.cls-4{fill:#47560b;}.cls-10,.cls-5{fill:#ff7000;}.cls-6{fill:#335d00;}.cls-7{fill:#5a261b;}.cls-8{fill:#f9ecb7;}.cls-11,.cls-12,.cls-9{stroke:#fff;}</style></defs><title>irishLion-logo-est</title><g id="Layer_2" data-name="Layer 2"><g id="Layer_1-2" data-name="Layer 1"><path class="cls-1" d="M2019.57,80.55l-10.16.15a6,6,0,0,0,0,12l10.16-.15a6,6,0,0,0,0-12Z"/><path class="cls-1" d="M2043,89.16h11.78c7.72,0,7.73-12,0-12H2043c-7.72,0-7.73,12,0,12Z"/><path class="cls-1" d="M1204.95,425.77a3.93,3.93,0,0,0-1.35,1.26l2.8.76,0-.55a1.5,1.5,0,0,0-3,0l0,.55a1.51,1.51,0,0,0,2.8.76c-.12.16.14-.13,0,0a2.13,2.13,0,0,0,.24-.14,1.5,1.5,0,1,0-1.51-2.59Z"/><path class="cls-2" d="M65.81,148"/><path class="cls-2" d="M118.57,122.63"/><path class="cls-3" d="M869.94,156.67"/><path class="cls-3" d="M740.34,438.53"/><path class="cls-4" d="M1418.78,307.61c4,11.57,1.74,22.42-2.68,37-1.45,4.79-3.62,9.69-8,19.49-7.52,16.93-10.14,19.34-12.15,20.77-1.44,1-5.62,5-21.59,4.51-8.33-.23-16.66-.52-25-.82-41.12-1.49-61.87-8.64-67.29-2.46a169.87,169.87,0,0,0-18.37-2,269,269,0,0,0-41.47.47c-14.21,1.38-28.4,4.74-41.27,10.72,9.74-21.14,14.44-38.73,19.64-58.22,15.09-56.48,11.32-102,10.25-113-3-31.12-10.33-49.64-12.42-55.08-4.77-12.41-7.6-18.75-11.87-25.12l.48-.32.1,0a197,197,0,0,0,56.55,7.06c18.6-.43,37.68-3.07,54.34-11.78a7,7,0,0,1,1.82-.67c-2.32,4.8-4.47,9.68-6.49,14.61a469,469,0,0,0-24.29,78.26c-5.87,27.43-8.62,55.77-5.41,83.73,1.5,13.05,7,25.46,19.06,31.86,13.93,7.41,33.34,7.79,48.8,7.87,13,.07,26.23-.89,38.47-5.29a59.77,59.77,0,0,0,18.83-10.77,54.53,54.53,0,0,0,9-9.45,41.67,41.67,0,0,0,4.24-7.8,9.17,9.17,0,0,1-2.83,1.36c-7.65,2.23-20.28-5.08-20.82-14.89-.53-9.44,10.33-17,18.68-17.17h.33C1408.06,290.52,1415.54,298.11,1418.78,307.61Z"/><path class="cls-1" d="M1312.32,113.87c.76,1.63-1.85,5.09-2.64,6.38a194.09,194.09,0,0,0-9.79,18,7,7,0,0,0-1.82.67c-16.66,8.71-35.74,11.36-54.34,11.78a197,197,0,0,1-56.55-7.06l-.1,0-.48.32q-.29-.47-.62-.93c-6.39-9.28-12.91-15-11-18.63,1.44-2.76,6.77-2.67,10.54-2.6a33.4,33.4,0,0,1,16.89,5.33c5.22,3.37,6.95,6.49,8.59,5.71,2.09-1,2.83-7.77,2.19-12.51-.14-1-.44-2.72.43-3.35.7-.51,1.92-.06,3.45.76a38.6,38.6,0,0,1,9.37,7.25c3.19,3.23,3.95,4.4,4.87,4.14,1.51-.42,1.6-4.22,1.79-7,.09-1.5,1.41-20.45,5.48-21.36s14.46,14.59,17.15,23.68c.16.57.85,3,2.08,3.12,1.44.14,2.55-3,6.68-7.86,2-2.3,2.42-2.45,2.82-2.39,1.36.16,2,2.77,5.1,10.57.91,2.27,1,2.49,1.4,2.69,2.67,1.51,7.19-4.7,18-11.64a40.59,40.59,0,0,1,15.11-5.75C1309.86,112.75,1311.82,112.79,1312.32,113.87Z"/><path class="cls-1" d="M1301.7,428.23c3.64,3.65,9.47,8.7,8.19,10.86-1.49,2.53-9.94.14-12.13-.42a38.13,38.13,0,0,1-12.35-5.33c-10.35-6.83-13.32-15.66-15.86-14.72-2.7,1-.33,11.26-2.93,12-1.32.39-3.25-2-7.13-6.74-.47-.59-5.48-7.77-6.25-7-2.71,2.75-3.37,9.56-4.59,13.27a39,39,0,0,1-6.43,12.57c-1.74,2.12-3.16,3-4.44,2.92-2.8-.07-5-3.2-6.38-5.46-8.23-13.05-13.63-27-14-27-.59.68-10.64,18.46-13.5,18.14-2.61-.3-.68-15.75-5.24-17.3-1.29-.43-2.86.32-15.66,13.52a61.75,61.75,0,0,1-18.9,13.33c-1.33.58-2.13.46-2.52.18-3.52-2.56,9.07-24.22,17.16-40.92.78-1.62,1.53-3.22,2.26-4.79,12.87-6,27.06-9.34,41.27-10.72a269,269,0,0,1,41.47-.47,169.87,169.87,0,0,1,18.37,2,4.58,4.58,0,0,0-.57.77C1276.82,394.94,1290.07,416.51,1301.7,428.23Z"/><path class="cls-3" d="M1447.23,316.56"/><g id="_Group_" data-name="&lt;Group&gt;"><path class="cls-1" d="M1564.62,428.1c.17,3.5-7.58,1.86-9.76,1.4-9.5-2-23.67-8.11-30.66-16.72-.53-.65-2.38-3-3.08-2.64s0,2.2.63,5.76c.39,2.08,3.28,11.94-2.28,8.29a28.86,28.86,0,0,1-8.22-7.78c-1.19-1.77-2.11-3.83-3.59-5.39-2.64-2.8-2.47-.73-2.43,2a15.25,15.25,0,0,1-1.21,6.83c-1.48,3.17-3.57,4-6.08,6.3-4.89,4.5-6.4,10.29-8.31,16.36-.24.75-.32,2.25-1.26,2.46s-1.89-1.43-2.16-2.16c-1.38-3.73-1.14-7.94-2.77-11.56-1.1-2.45-3-4.47-4.4-6.75-1.77-2.84-2.79-6.07-4.4-9-2-3.66-3.62,3.65-4.24,4.77a14.82,14.82,0,0,1-5.41,5.69c-1.51.89-2.88.63-3.36-1.13-.77-2.9-.38-6.21-.74-9.23a1.41,1.41,0,0,0-2.64-.5,9.91,9.91,0,0,1-.5.88c-4.11,6.3-11.11,10.43-18.52,11.83a37.3,37.3,0,0,1-12.66.08c-2.19-.36-10-1.14-10.35-4-.2-1.49,2.2-3.55,3.09-4.5,5.38-5.72,9.51-12.62,13.11-19.69,32.14-13.64,68.42-16.79,102.57-9.75a179,179,0,0,0,11.91,17.84q5.82,7.67,12.37,14.75C1560.52,423.81,1564.53,426.15,1564.62,428.1Z"/><path class="cls-1" d="M1536.79,113.34c2.42-.89,17.07-5.25,11.53,1.23-2.17,2.55-4.3,5.12-6.34,7.79a162.31,162.31,0,0,0-15.14,24c-15.47,6.29-32.53,8.35-49.23,8.72a205.25,205.25,0,0,1-42.33-3.47,198.23,198.23,0,0,0-13.49-20.38,131.55,131.55,0,0,1-8.61-12.06c-1.3-2.2-1.87-4-1.48-5s2-1.27,4.92-.15c11.49,4.37,20.25,11.34,30.17,18.23a2.51,2.51,0,0,0,1.4.59c1.2,0,1.74-1.49,1.85-2.68a20,20,0,0,0-.78-7.7c-.2-.65-.39-1.42.06-1.92s1.55-.25,2.25.17c5.57,3.35,9.8,8.48,14.72,12.72,2.7,2.32,2-3.34,2.1-4.67a60.54,60.54,0,0,1,1.78-8.46c.67-2.64.81-1.82,2.61-7.45a33.32,33.32,0,0,1,1.81-4.49c1.1-2.28,2-3.54,4.43-1.92,2.69,1.78,5,5.19,6.84,7.8A46.42,46.42,0,0,1,1493.7,134c.12.77.3,1.33,1,1.6a19.86,19.86,0,0,0,2-5.08c1.27-3.79,4-8.19,7.55-10.25s2.85,4.4,3.35,6.91c.37,1.88.89,7.44,3.67,7.13,1.63-.17,3.15-3.92,4.07-5.16a46.52,46.52,0,0,1,5.5-6.07A47.94,47.94,0,0,1,1536.79,113.34Z"/><path class="cls-4" d="M1506.73,306.7c4.84,29.37,13.36,57.76,28.27,83.2-34.15-7-70.43-3.89-102.57,9.75.61-1.18,1.2-2.37,1.78-3.55A285.34,285.34,0,0,0,1457.89,325a320.67,320.67,0,0,0,5.32-61.89v-.81q-.07-8.17-.51-16.33c-1.81-33.45-10.89-65.68-27.42-94.35a205.25,205.25,0,0,0,42.33,3.47c16.7-.37,33.75-2.43,49.23-8.72-14.07,27.16-21,58-23.36,88.34A302.06,302.06,0,0,0,1506.73,306.7Z"/></g><path class="cls-5" d="M1529.65,270.18a11,11,0,0,0,3.94,8.77,14.74,14.74,0,0,0,10.56,3.09,11.72,11.72,0,0,0,7.6-3.23c2.27-2.38,3-5.84,3.13-9.12a20.18,20.18,0,0,0-.79-7,11.52,11.52,0,0,0-3.89-5.73,13.21,13.21,0,0,0-6.89-2.34,14.65,14.65,0,0,0-6.83.89c-4.32,1.8-6,6.2-6.57,10.57A27.44,27.44,0,0,0,1529.65,270.18Z"/><path class="cls-6" d="M1524.12,278.59c-3.43,1.19-5.27,3.75-4.49,7.45a7.22,7.22,0,0,0,1.51,3.31c1.73,2,4.41,1.95,6.64,1a6.87,6.87,0,0,0,3.33-3.1,6.7,6.7,0,0,0,.7-2.86,6.14,6.14,0,0,0-.87-3.74,5.58,5.58,0,0,0-3.38-2.42A6,6,0,0,0,1524.12,278.59Z"/><path class="cls-6" d="M1549.53,284.13q0,.09,0,.18a9.33,9.33,0,0,0,2.45,6.13,6.25,6.25,0,0,0,2.92,2,6.56,6.56,0,0,0,5.15-.93,6.78,6.78,0,0,0-1.77-12.36,7,7,0,0,0-4.22.27C1552.29,280.07,1549.75,281.72,1549.53,284.13Z"/><path class="cls-6" d="M1521.56,246.47a6.69,6.69,0,0,0-.3,3.83,7.66,7.66,0,0,0,2.08,3.74,8.38,8.38,0,0,0,4.31,2.17,6.86,6.86,0,0,0,4.11,0,6.18,6.18,0,0,0,3.19-2.74,7.84,7.84,0,0,0,.76-5c-.15-1.63-.31-3.44-1.72-5a6.84,6.84,0,0,0-4.39-2A7.9,7.9,0,0,0,1521.56,246.47Z"/><path class="cls-6" d="M1548.61,248a6.21,6.21,0,0,0,6.53,8.06,9,9,0,0,0,5.59-2.21,7.23,7.23,0,0,0,2.43-5.43,7.06,7.06,0,0,0-6.16-6.54C1553.19,241.49,1549.55,244.41,1548.61,248Z"/><path d="M1537.5,300.59a3.51,3.51,0,0,0,.66,1.68,2.83,2.83,0,0,0,3.37.67,3.59,3.59,0,0,0,1.89-3,3.39,3.39,0,0,0-2.31-3.49,3,3,0,0,0-3.72,2.91C1537.41,299.78,1537.43,300.19,1537.5,300.59Z"/><path class="cls-3" d="M1537.5,300.59a3.51,3.51,0,0,0,.66,1.68,2.83,2.83,0,0,0,3.37.67,3.59,3.59,0,0,0,1.89-3,3.39,3.39,0,0,0-2.31-3.49,3,3,0,0,0-3.72,2.91C1537.41,299.78,1537.43,300.19,1537.5,300.59Z"/><path d="M1514,268.89a3.51,3.51,0,0,0,.66,1.68,2.83,2.83,0,0,0,3.37.67,3.59,3.59,0,0,0,1.89-3,3.39,3.39,0,0,0-2.31-3.49,3,3,0,0,0-3.72,2.91C1513.86,268.07,1513.89,268.49,1514,268.89Z"/><path class="cls-3" d="M1514,268.89a3.51,3.51,0,0,0,.66,1.68,2.83,2.83,0,0,0,3.37.67,3.59,3.59,0,0,0,1.89-3,3.39,3.39,0,0,0-2.31-3.49,3,3,0,0,0-3.72,2.91C1513.86,268.07,1513.89,268.49,1514,268.89Z"/><path d="M1542.44,239a3.51,3.51,0,0,0,.66,1.68,2.83,2.83,0,0,0,3.37.67,3.59,3.59,0,0,0,1.89-3,3.39,3.39,0,0,0-2.31-3.49,3,3,0,0,0-3.72,2.91C1542.35,238.22,1542.38,238.63,1542.44,239Z"/><path class="cls-3" d="M1542.44,239a3.51,3.51,0,0,0,.66,1.68,2.83,2.83,0,0,0,3.37.67,3.59,3.59,0,0,0,1.89-3,3.39,3.39,0,0,0-2.31-3.49,3,3,0,0,0-3.72,2.91C1542.35,238.22,1542.38,238.63,1542.44,239Z"/><path d="M1681.08,426.73a3.51,3.51,0,0,0,1.7-.61,2.83,2.83,0,0,0,.78-3.35,3.59,3.59,0,0,0-2.93-2,3.39,3.39,0,0,0-3.56,2.2,3,3,0,0,0,2.79,3.81C1680.27,426.79,1680.68,426.77,1681.08,426.73Z"/><path class="cls-3" d="M1681.08,426.73a3.51,3.51,0,0,0,1.7-.61,2.83,2.83,0,0,0,.78-3.35,3.59,3.59,0,0,0-2.93-2,3.39,3.39,0,0,0-3.56,2.2,3,3,0,0,0,2.79,3.81C1680.27,426.79,1680.68,426.77,1681.08,426.73Z"/><g id="_Group_2" data-name="&lt;Group&gt;"><path class="cls-1" d="M1005.77,404c12.92,25.5,32.89,34.45,30.22,39.29-1.83,3.35-12.67,1.5-20.15-1.34-16.38-6.22-24.22-20.06-26.84-18.49-1.78,1.06.69,9.81,1.42,13.87a.81.81,0,0,1-1.21.83A38.6,38.6,0,0,1,977.57,428c-2.35-3.1-3.76-6.06-5.14-5.76-1.7.38-.38,5.16-2.6,10.92-2.68,6.94-7.44,7.35-12.95,16.13-1.34,2.13-2.25,3.47-2.91,4.69a1,1,0,0,1-1.73.07c-2.37-3.64-4.05-8-6.69-12-2.76-4.15-4.62-9.22-6.77-13.24a.61.61,0,0,0-1.13.15,15.2,15.2,0,0,1-4.77,8.22c-1.43,1.21-3.59,2.72-5.53,3a2,2,0,0,1-2-.76,3.21,3.21,0,0,1-.08-2.37c.72-3.47.93-8.56-1.06-11.79a.86.86,0,0,0-1.36-.1c-4.75,5.48-7.84,11.07-15.34,13.81a36.82,36.82,0,0,1-6.67,1.77,39.37,39.37,0,0,1-11,.23c-2.9-.32-12.73-.65-11.63-5.32a8,8,0,0,1,2.12-3.34,93.24,93.24,0,0,0,13.89-21.5c24.83-21.28,82.91-26.36,110.48-8.82C1005.13,402.66,1005.45,403.31,1005.77,404Z"/><path class="cls-1" d="M1026.56,116.51c.09,1.79-5.41,6.15-6.67,7.58a160.33,160.33,0,0,0-12.44,15.72c-16,7.62-34,10-51.55,10.4a195.3,195.3,0,0,1-51.56-5.76,71.43,71.43,0,0,0-7.56-10.55c-1.75-2-4.75-5.44-2.82-8.25a4.11,4.11,0,0,1,3.55-1.7,44.46,44.46,0,0,1,19.18,5.31c1.62.87,5.82,4.93,7.4,4.94,2.84,0,0-3.74-.76-5.31-3.24-6.75-4.88-10.17-3.83-11.38.87-1,4.39.4,11.45,3.17,4.55,1.79,6.94,3,9.22,5.26a11.9,11.9,0,0,0,1.25,1.14.78.78,0,0,0,1.23-.59c0-1.18-.63-2.27-1-3.6-1.37-5.8-1.47-8.86-1.07-11.15.54-3.22,1.45-2.58,3.46-8.65.52-1.56.53-4.65,1.92-5.8,2.48-2.05,9,4.54,11.08,6,3.06,2.2,6.19,4.47,8.37,7.54a17.37,17.37,0,0,1,3.06,8c.12.91-.61,6.24.32,6.62s2.11-1.93,5.77-5.68A29.55,29.55,0,0,1,985,112.46c3.38-1.33,5.67-1.58,3.88,2.58q-2.41,5.56-4.27,11.32a1.32,1.32,0,0,0,2,1.5,12.67,12.67,0,0,0,1.05-.74c1.67-1.36,3.31-2.78,5-4.1,14.1-10.8,26.55-9.72,26.55-9.72C1020.75,113.51,1026.44,114.2,1026.56,116.51Z"/><path class="cls-4" d="M839.81,263.2q19.53,16,39.05,32L902.27,275c7.26-6.25,16.26-12.21,22-20,6-8.19,4.39-19.48,3.21-29.06a314.21,314.21,0,0,0-10.09-49.37c-3.22-11.11-7.11-22.3-13-32.2a195.3,195.3,0,0,0,51.56,5.76c17.58-.4,35.57-2.78,51.55-10.4q-2.25,3.29-4.2,6.75c-7.82,14-12.43,37.41-13.87,47.06L982,242.75c-2.26,15.23-2.18,31.58-1.8,47,0,.1,0,.21,0,.32.38,13,1.17,35.74,7.72,61.8,2.76,10.92,6.35,21.74,7.4,24.86,3.73,11.1,6.2,18.43,9.45,25.25-27.57-17.54-85.65-12.46-110.48,8.82a134.83,134.83,0,0,0,6.36-15.8c4.25-12.46,8.11-25.05,11.71-37.71q4.86-17.17,9.09-34.52a157.24,157.24,0,0,0,3.69-18.45c.24-2,1.5-6.84-.07-8.32s-4.44.32-5.83,1.22a88,88,0,0,0-13.24,11.09c-4.94,4.82-9.69,9.86-14.38,14.93q-3.51,3.81-7,7.66c-1.42,1.55-4.21,6.87-6.66,6.7-1.1-.07-3-2.78-3.73-3.52-3.73-3.75-7.5-7.45-11.26-11.16-6.6-6.49-13.25-12.91-19.83-19.42-1.19-1.19-2.3-2.09-3.07-2.73.53,15.77,1.43,29.24,2.27,41.49,1.21,17.47,3,31.13,4.78,43.45,1,6.67,1.77,11.17,2.83,16.11.16.77.32,1.52.5,2.27l-.73.15A149,149,0,0,0,746.65,409c.42-1.11.76-2.1,1.11-2.9A322,322,0,0,0,768,340.64a417.62,417.62,0,0,0,7.3-66.3c.61-14.87,1.43-36.54-1.68-64.61-2.26-20.41-6.72-40.67-14.83-59.56a200.89,200.89,0,0,0,50.86,5.42c18.63-.42,37.71-3,54.45-11.45a160.34,160.34,0,0,0-14.49,31.12c-8.91,26.11-9.14,53.49-9.67,80.77Q839.84,259.69,839.81,263.2Z"/><path class="cls-1" d="M877.73,117c1.75.5,4.13,1.32,3.72,3.55-.23,1.29-2.88,3.39-3.75,4.43q-2.13,2.56-4.15,5.2a155.73,155.73,0,0,0-9.46,13.94c-16.73,8.46-35.82,11-54.45,11.45a200.89,200.89,0,0,1-50.86-5.42c-.81-1.88-1.66-3.75-2.54-5.61-1.33-2.79-2.75-5.55-4.24-8.26-.72-1.32-1.47-2.62-2.23-3.92-1.12-1.92-1.51-3,.84-4.15a8.23,8.23,0,0,1,2-.62c5.4-.88,11.48,2.41,11.48,2.41,9.51,5.16,13.58,11.06,14.9,10.22s-1.11-5.14-1.45-6a62.87,62.87,0,0,1-2.83-8.39,7.18,7.18,0,0,1-.25-3c1.2-6.15,12.26.35,14.71,2.12,5.8,4.2,7.9,9.69,8.78,9.27s-1.66-8.1-1.88-9a76.09,76.09,0,0,1-2.25-12.57,13.56,13.56,0,0,1,.35-5.29c.9-2.85,3.21-4.85,5-7.12,1.48-1.87,4.9-8.09,6.91-3.17,1.83,4.5,2.64,8.8,6.12,12.53a40.55,40.55,0,0,1,6.54,8.49,14.44,14.44,0,0,1,1.12,2.58,26.74,26.74,0,0,1,1.2,7.33c.06,1.53.28,4.39,2,1.63a41.7,41.7,0,0,1,6.55-8.22c1.9-1.79,9.61-8.69,9.25-1.92-.15,2.84-1.67,5.62-2.16,8.41-.18,1-.61,2.9.16,3.81,1.37,1.64,3.67-.78,4.74-1.8,2.79-2.64,7.86-5.63,15.29-9.68C862.83,117,871.11,115.19,877.73,117Z"/><path class="cls-1" d="M859,431.85c5.74,11.92,11,15.45,9.36,17.78-2.35,3.43-16.72.2-27.23-8.14-9.67-7.67-12.84-17.09-15.32-16.18-3.4,1.25,1.38,19.46-1.7,20.43-2.09.67-6.51-6.91-7.85-9.22-3.87-6.62-4.87-11.38-5.78-11.21-1.19.22,1.12,8.07-1.71,18.3-1,3.57-1.28,2.7-4.06,10.69-2.4,6.94-2.83,9.47-4.44,9.75-1.08.18-2.33-.69-7.1-7.56-4.29-6.19-6.44-9.28-7.18-11.24-3.51-9.34.1-18.52-.63-18.67-.57-.1-1.34,5.69-5.29,11.82-2.28,3.53-6.82,9.13-9.19,8.19-1.67-.66-1.75-4.85-1.87-13.21-.1-7.44.43-9.52-.63-10-2.84-1.41-8.64,12.67-20.48,15.59-5.8,1.43-20.68-3.52-24-4.94l0,.09a5.06,5.06,0,0,0-2-.45l0-.08a4.23,4.23,0,0,0,.3-.55c.87-.3,1.5-.46,1.79-.54,1.82-1.05,4.36-2.58,7.26-4.59a88.82,88.82,0,0,0,7.57-5.79c4.45-4,6.45-9.23,7.84-13a149,149,0,0,1,103.14-4.78l.73-.15C852.8,414.78,854.68,422.85,859,431.85Z"/></g><path class="cls-1" d="M156.9,114c.62,1.38-.9,4.17-3.94,9.75-.87,1.56-1.25,2.31-2.05,3.77-.3.54-.6,1.1-.89,1.65-2.05,4-2.28,4.13-4,7.56-.27.55-.55,1.15-1,2.05a107.42,107.42,0,0,1-49.47,10.86c-13.2-.28-28.11-2.76-40.56-8.85q-1.45-4.73-3-9.4c-1.06-3.14-3.59-6.51-3.6-9.91,0-5.93,8.62-1.45,11.37.3,3.06,2,4.3,3.53,7.36,5.49,1,.63,1.75,1.48,1.08-.91s-4.63-10.24-.77-10.81c2.12-.31,6.42,3.36,7.8,4.8,1.19,1.23,6.27,8.24,8.32,5.2a4.65,4.65,0,0,0,.35-3c-.43-6.6,3.74-12.52,7.72-17.81.66-.88,1.5-1.83,2.58-1.75s1.7,1,2.25,1.82c3.46,5.23,7.07,11,6.73,17.22-.16,3.13,1.66,2.37,3.25.48,2.32-2.71,3.82-6.1,6.5-8.45a2.78,2.78,0,0,1,2.57-.88,2.83,2.83,0,0,1,1.5,2c1,3.25,1,6.66,1.33,10,.12,1.18.7,5.49,1.89,6,.92.4,2.1-1.06,2.84-1.92,2.7-3.12,5.72-5.94,8.5-9a27.89,27.89,0,0,1,13.59-7.87C149.23,111.64,155.71,111.41,156.9,114Z"/><path class="cls-1" d="M148.15,421.13c1.72,2.64,1.23,3.83-2.08,4.44-5.84,1.08-12-.5-17.08-3.5a47.4,47.4,0,0,1-13-12,7.7,7.7,0,0,0-2.13-2.1c-3.61-2-3,5.3-3.22,7.26-.68,7.13-.87,9.1-1.89,9.43s-2.64-1.52-4.15-3.4c-2.15-2.71-3-6.5-5.18-9.17a1,1,0,0,0-1.8.52c-.46,3,.52,7.14-.74,10.19-1.82,4.41-4.17,4.07-8.08,9.68-4.63,6.65-4.94,12.27-6.45,12.11C81,444.39,81.8,440,79.15,434c-3-6.77-6.61-7.06-7.66-12.51-.43-2.22.92-5.42.61-7.72a.92.92,0,0,0-1.56-.55c-1.83,1.67-2.72,4.59-4.47,6.32-1.34,1.34-8.76,7.84-10.17,5.12-.82-1.58,2.43-8.14,2.73-9.9s1.52-13.29-2.86-8C46.42,418.1,34.36,428,20,430.89c-4.54.91-9.19,1-6.6-4.34s6.54-9.86,9.69-14.7c0,0,.23-.35,2.39-4.26,0,0,0,0,0,0a128.44,128.44,0,0,1,11.11-6.82C49,394,62.7,390.8,76.72,389.47c20.48-1.93,43.38-.72,60.57,11.45,5.14,9.95,6,11.33,6,11.33C145.12,415.09,146.31,418.3,148.15,421.13Z"/><path class="cls-4" d="M145.1,138.8c-.66,1.44-1.64,3.66-3.36,7.67-2.54,6-3.82,8.93-4.67,11.17,0,0-2.05,5.33-4,11.53-5,16.32-7.71,35-9.15,45.34-.47,3.39-1.26,8.89-2,16.2-1.53,14.92-2,27.61-2.42,40.7-.85,25.72-1.53,49.55,2.83,79.09,0,0,4.41,29.88,13.32,47.21.59,1.15,1.14,2.22,1.65,3.2-17.19-12.16-40.09-13.37-60.57-11.45C62.7,390.8,49,394,36.57,400.76a128.44,128.44,0,0,0-11.11,6.82C27,404.72,29.65,400,34,392.07c8.9-16.32,18.76-45.4,25-74.25,5.12-23.65,7.58-47.67,8.47-71.82.77-21,1.48-43.39-4-72.23-1.83-9.65-4.24-19.19-7-28.61-.44-1.45-.88-2.91-1.33-4.35,12.45,6.09,27.36,8.57,40.56,8.85A107.42,107.42,0,0,0,145.1,138.8Z"/><g id="_Group_3" data-name="&lt;Group&gt;"><path class="cls-4" d="M1783.37,268.55a4.44,4.44,0,0,1,.6,6.88c-27.33,26.5-52.76,54.86-78.17,83.19L1689.29,377c-1.6,1.79-5.86,8.52-8.17,8.93-3,.54-5-3.24-6.89-5.33q-12.31-13.93-24.44-28c-15.16-17.61-30.88-34.31-49-49-12.64-10.22-27.4-22.68-42.62-29.28a4.41,4.41,0,0,1-2.64-3.8c-.14-2.34-.27-5.29.16-5.54,25.38-14.79,48.42-35.35,69.38-55.91q15.58-15.27,29.75-31.88c1.06-1.25,2.38-3,4.6-5.68s2.63-3,4.3-5c2.57-3,6.29-11.47,11.46-9.37,3.75,1.52,5.19,6.94,7.18,10,2.17,3.37,4.44,6.67,6.79,9.92,4.59,6.35,9.5,12.46,14.62,18.39,10,11.63,21,22.68,31.91,33.32a387.65,387.65,0,0,0,37.75,32.78C1776.66,264,1780,266.3,1783.37,268.55Zm-61.87,4.15a1.8,1.8,0,0,0-.24-2.78c-1.36-.91-2.71-1.82-4-2.8A157.42,157.42,0,0,1,1702,253.85c-4.42-4.3-8.85-8.77-12.91-13.48-2.07-2.4-4.05-4.87-5.91-7.44-1-1.32-1.87-2.65-2.75-4s-1.38-3.43-2.91-4.05c-2.09-.84-3.6,2.56-4.64,3.8-.67.81-.8.89-1.74,2s-1.43,1.8-1.86,2.31c-3.82,4.47-7.84,8.78-12,12.89-8.48,8.32-17.81,16.64-28.08,22.63a6.16,6.16,0,0,0-.06,2.24,1.76,1.76,0,0,0,1.06,1.53c6.16,2.68,12.13,7.71,17.25,11.85a154.43,154.43,0,0,1,19.81,19.8q4.92,5.71,9.89,11.34c.75.84,1.57,2.38,2.79,2.16.93-.17,2.65-2.9,3.3-3.61l6.68-7.45C1700.16,294.89,1710.45,283.42,1721.51,272.7Z"/></g><path class="cls-3" d="M1659.65,152"/><path class="cls-6" d="M1659.4,149.78l-.18,0a9.33,9.33,0,0,0-6.26,2.12,6.25,6.25,0,0,0-2.16,2.81,6.56,6.56,0,0,0,.65,5.19,6.78,6.78,0,0,0,12.44-1.11,7,7,0,0,0,0-4.23C1663.31,152.75,1661.8,150.13,1659.4,149.78Z"/><path class="cls-6" d="M1700.81,123.87a6.69,6.69,0,0,0-3.81-.51,7.66,7.66,0,0,0-3.84,1.88,8.38,8.38,0,0,0-2.39,4.19,6.86,6.86,0,0,0-.26,4.1,6.18,6.18,0,0,0,2.56,3.33,7.84,7.84,0,0,0,5,1c1.64-.06,3.45-.12,5-1.45a6.84,6.84,0,0,0,2.22-4.27A7.9,7.9,0,0,0,1700.81,123.87Z"/><path class="cls-6" d="M1695.49,150.79a6.21,6.21,0,0,0-8.4,6.09,9,9,0,0,0,1.91,5.7,7.23,7.23,0,0,0,5.29,2.72,7.06,7.06,0,0,0,6.86-5.8C1701.78,155.71,1699.07,151.92,1695.49,150.79Z"/><path d="M1643.6,136.88a3.51,3.51,0,0,0-1.72.57,2.83,2.83,0,0,0-.85,3.33,3.59,3.59,0,0,0,2.89,2,3.39,3.39,0,0,0,3.61-2.12,3,3,0,0,0-2.71-3.87C1644.42,136.84,1644,136.84,1643.6,136.88Z"/><path class="cls-3" d="M1643.6,136.88a3.51,3.51,0,0,0-1.72.57,2.83,2.83,0,0,0-.85,3.33,3.59,3.59,0,0,0,2.89,2,3.39,3.39,0,0,0,3.61-2.12,3,3,0,0,0-2.71-3.87C1644.42,136.84,1644,136.84,1643.6,136.88Z"/><path d="M1704.81,145.11a3.51,3.51,0,0,0-1.72.57,2.83,2.83,0,0,0-.85,3.33,3.59,3.59,0,0,0,2.89,2,3.39,3.39,0,0,0,3.61-2.12,3,3,0,0,0-2.71-3.87C1705.63,145.07,1705.22,145.07,1704.81,145.11Z"/><path class="cls-3" d="M1704.81,145.11a3.51,3.51,0,0,0-1.72.57,2.83,2.83,0,0,0-.85,3.33,3.59,3.59,0,0,0,2.89,2,3.39,3.39,0,0,0,3.61-2.12,3,3,0,0,0-2.71-3.87C1705.63,145.07,1705.22,145.07,1704.81,145.11Z"/><path class="cls-5" d="M1682.89,411.08a11,11,0,0,0,8.9-3.65,14.74,14.74,0,0,0,3.43-10.45,11.72,11.72,0,0,0-3-7.71c-2.3-2.35-5.74-3.19-9-3.43a20.18,20.18,0,0,0-7,.57,11.52,11.52,0,0,0-5.86,3.7,13.21,13.21,0,0,0-2.56,6.81,14.65,14.65,0,0,0,.67,6.86c1.66,4.38,6,6.22,10.35,6.91A27.44,27.44,0,0,0,1682.89,411.08Z"/><path class="cls-6" d="M1691.19,414.58c1.08,3.47,3.58,5.39,7.3,4.73a7.22,7.22,0,0,0,3.36-1.4c2-1.66,2.09-4.35,1.18-6.61a6.87,6.87,0,0,0-3-3.43,6.7,6.7,0,0,0-2.84-.8,6.14,6.14,0,0,0-3.77.75,5.58,5.58,0,0,0-2.53,3.3A6,6,0,0,0,1691.19,414.58Z"/><path class="cls-6" d="M1699.78,391.66l.18,0a9.33,9.33,0,0,0,6.21-2.25,6.25,6.25,0,0,0,2.1-2.86,6.56,6.56,0,0,0-.76-5.18,6.78,6.78,0,0,0-12.41,1.37,7,7,0,0,0,.13,4.23C1695.82,388.77,1697.39,391.37,1699.78,391.66Z"/><path class="cls-6" d="M1657.77,419.54a6.69,6.69,0,0,0,3.82.43,7.66,7.66,0,0,0,3.81-2,8.38,8.38,0,0,0,2.3-4.24,6.86,6.86,0,0,0,.17-4.11,6.18,6.18,0,0,0-2.63-3.28,7.84,7.84,0,0,0-5-.92c-1.64.09-3.45.19-5,1.56a6.84,6.84,0,0,0-2.13,4.32A7.9,7.9,0,0,0,1657.77,419.54Z"/><path class="cls-6" d="M1661.37,391.41a6.21,6.21,0,0,0,8.27-6.26,9,9,0,0,0-2-5.66,7.23,7.23,0,0,0-5.34-2.61,7.06,7.06,0,0,0-6.74,5.94C1655,386.62,1657.78,390.35,1661.37,391.41Z"/><path d="M1713.54,404.23a3.51,3.51,0,0,0,1.7-.61,2.83,2.83,0,0,0,.78-3.35,3.59,3.59,0,0,0-2.93-2,3.39,3.39,0,0,0-3.56,2.2,3,3,0,0,0,2.79,3.81C1712.73,404.29,1713.14,404.28,1713.54,404.23Z"/><path class="cls-3" d="M1713.54,404.23a3.51,3.51,0,0,0,1.7-.61,2.83,2.83,0,0,0,.78-3.35,3.59,3.59,0,0,0-2.93-2,3.39,3.39,0,0,0-3.56,2.2,3,3,0,0,0,2.79,3.81C1712.73,404.29,1713.14,404.28,1713.54,404.23Z"/><path d="M1652.18,397.28a3.51,3.51,0,0,0,1.7-.61,2.83,2.83,0,0,0,.78-3.35,3.59,3.59,0,0,0-2.93-2,3.39,3.39,0,0,0-3.56,2.2,3,3,0,0,0,2.79,3.81C1651.36,397.34,1651.77,397.33,1652.18,397.28Z"/><path class="cls-3" d="M1652.18,397.28a3.51,3.51,0,0,0,1.7-.61,2.83,2.83,0,0,0,.78-3.35,3.59,3.59,0,0,0-2.93-2,3.39,3.39,0,0,0-3.56,2.2,3,3,0,0,0,2.79,3.81C1651.36,397.34,1651.77,397.33,1652.18,397.28Z"/><path class="cls-6" d="M1793.13,255.2q0-.09,0-.18a9.11,9.11,0,0,0-2.13-6.28,6.46,6.46,0,0,0-2.89-2.2,7.6,7.6,0,0,0-9,4.65,6.63,6.63,0,0,0,.83,5.42,7.13,7.13,0,0,0,3.81,3,7.51,7.51,0,0,0,4.39,0C1790,259.07,1792.74,257.59,1793.13,255.2Z"/><path class="cls-6" d="M1820.71,296.94a6.47,6.47,0,0,0,.57-3.8,7.53,7.53,0,0,0-1.9-3.87,8.8,8.8,0,0,0-4.32-2.45,7.38,7.38,0,0,0-4.26-.31,6.37,6.37,0,0,0-3.49,2.52,7.6,7.6,0,0,0-1.13,4.94c0,1.64.08,3.45,1.45,5.06a7.21,7.21,0,0,0,4.41,2.28A8.27,8.27,0,0,0,1820.71,296.94Z"/><path class="cls-6" d="M1791.64,292.43c1.51-4.4-1.42-8.39-6.22-8.48a9.61,9.61,0,0,0-5.95,1.83,6.71,6.71,0,0,0,3,12.19A8.5,8.5,0,0,0,1791.64,292.43Z"/><path d="M1806.72,240.72a3.43,3.43,0,0,0-.57-1.72,3,3,0,0,0-3.45-.89,3.6,3.6,0,0,0-2.16,2.86,3.37,3.37,0,0,0,2.16,3.63,3.07,3.07,0,0,0,4.05-2.66A11.85,11.85,0,0,0,1806.72,240.72Z"/><path class="cls-3" d="M1806.72,240.72a3.43,3.43,0,0,0-.57-1.72,3,3,0,0,0-3.45-.89,3.6,3.6,0,0,0-2.16,2.86,3.37,3.37,0,0,0,2.16,3.63,3.07,3.07,0,0,0,4.05-2.66A11.85,11.85,0,0,0,1806.72,240.72Z"/><path d="M1829,273.92a3.43,3.43,0,0,0-.57-1.72,3,3,0,0,0-3.45-.89,3.6,3.6,0,0,0-2.16,2.86,3.37,3.37,0,0,0,2.16,3.63,3.07,3.07,0,0,0,4.05-2.66A11.85,11.85,0,0,0,1829,273.92Z"/><path class="cls-3" d="M1829,273.92a3.43,3.43,0,0,0-.57-1.72,3,3,0,0,0-3.45-.89,3.6,3.6,0,0,0-2.16,2.86,3.37,3.37,0,0,0,2.16,3.63,3.07,3.07,0,0,0,4.05-2.66A11.85,11.85,0,0,0,1829,273.92Z"/><path d="M1797.41,301.82a3.43,3.43,0,0,0-.57-1.72,3,3,0,0,0-3.45-.89,3.6,3.6,0,0,0-2.16,2.86,3.37,3.37,0,0,0,2.16,3.63,3.07,3.07,0,0,0,4.05-2.66A11.85,11.85,0,0,0,1797.41,301.82Z"/><path class="cls-3" d="M1797.41,301.82a3.43,3.43,0,0,0-.57-1.72,3,3,0,0,0-3.45-.89,3.6,3.6,0,0,0-2.16,2.86,3.37,3.37,0,0,0,2.16,3.63,3.07,3.07,0,0,0,4.05-2.66A11.85,11.85,0,0,0,1797.41,301.82Z"/><path class="cls-3" d="M1821.73,159.83c16.14,2.33,32.69,1.76,49.08,1.2,10.24-.35,21.75-.56,30.63-5"/><path class="cls-4" d="M2069.71,381.54q1.8,4.67,3.83,9.24c0,.08,0,.16.06.24a204.88,204.88,0,0,0-80,.89h-.14a33.4,33.4,0,0,0-1.14-11.3c-7-25.9-22.47-48.31-38.55-69.61q-27.71-36.75-58.8-70.8c-1.23,5.44-2,9.83-2.37,12.5-3.49,22.87-.08,47.78,4.1,70.24a382.6,382.6,0,0,0,21,71.56A175.3,175.3,0,0,0,1815.28,398q2.65-7.27,6-16.4c.63-1.74,1-2.61,1.18-3.24,7.84-22.49,12.35-46,14.91-69.65,1.63-15,2.47-30,2.82-45.1.81-35.3-1.2-72.18-18.42-103-1.79-3.21-3.72-6.31-5.75-9.36a195.67,195.67,0,0,0,44.72,4.2c14.57-.33,29.45-2,43.22-6.95a32.49,32.49,0,0,0-2.28,12.61c.36,6.94,4.35,11.6,6.95,15.84q32.44,53,69.54,102.88c8,10.81,16.29,21.57,26.4,30.5a4,4,0,0,0,2.92,1c2.76-.25,3.14-3.1,3.17-5.41.93-56.68.91-117-29.63-164.87a4.28,4.28,0,0,1-.75-2.4c0-2.62,2.72-3.2,4.82-2.93,10.33,1.32,14.9,13.27,21.64,21.21,12.79,15,39.34,15,52-.13,5.62-6.68,8.5-15.29,14-22.08s15.62-11.46,22.88-6.61a8,8,0,0,1,2.84,3.09c2,4.14-1.29,8.74-4.18,12.29-26.68,33-37.41,76.27-40.37,118.58C2051.11,302.36,2055.24,344.18,2069.71,381.54Z"/><path class="cls-1" d="M2094.42,426.85a1,1,0,0,1-.93,1.6A51.38,51.38,0,0,1,2058.12,408a.43.43,0,0,0-.78.24,16.44,16.44,0,0,1-1.88,7.52,1.2,1.2,0,0,1-2.12,0,28.47,28.47,0,0,0-10.91-11.22.78.78,0,0,0-1.14.66,48.64,48.64,0,0,1-7.49,23.54,1.67,1.67,0,0,1-2.5.35,68.18,68.18,0,0,1-14.52-18.49.55.55,0,0,0-1,.15,17.26,17.26,0,0,1-6.53,10.28,1.18,1.18,0,0,1-1.88-1.05,29,29,0,0,0-1-10.2.66.66,0,0,0-1.2-.18,23.33,23.33,0,0,1-24.86,11.06,1.18,1.18,0,0,1-.65-2c7.05-7.51,12.5-15,13.72-25.54,0-.4.09-.81.12-1.22h.14a204.88,204.88,0,0,1,80-.89c0-.08,0-.16-.06-.24A189.37,189.37,0,0,0,2094.42,426.85Z"/><path class="cls-7" d="M2076.68,106.78c-.65-1.34-.36-3.15-1.34-5.91C2074,97,2072,97,2072.16,94.59s2.72-3.94,3.21-6.25c.77-3.73-3.69-6.73-4.28-10.32-.28-1.67.33-3.6-.47-5.16-1-2-2.71-1.4-4.58-1.71a12.11,12.11,0,0,1-8.74-6.44c-1.22-2.48-1.94-3.29-4.54-1.6a13.52,13.52,0,0,1-9.58,1.92c-3.27-.59-6.66-2.39-9.73-1.11-1.79.75-3.15,2.47-5.05,2.84-3.14.62-6.31-2.65-9.27-1.45-1.44.59-2.3,2.08-3.52,3-3.1,2.43-7.62,1.08-10.77,3.35-2.62,1.88-2.72,5.84-5.56,7.5a8.2,8.2,0,0,0-1.88,1.1c-1.26,1.3-.31,3.42-.17,5.23.27,3.31-2.46,6.34-2.12,9.65.25,2.55,2.32,4.88,1.78,7.39-.29,1.34-1.29,2.46-1.48,3.82-.36,2.63,1.92,3.64,2.86,6.36,1.29,3.69-.06,9.17-3.4,10.8h0c-3.36,1.62-7.51-1.22-8.31-1.78a15.2,15.2,0,0,1-6.23-11.08c-.28-4.63.8-9.29.32-13.91-.66-6.35-4.22-12.34-3.61-18.69.39-4.13,3.81-7.77,3.77-11.69,0-3.74-2.76-7-3-10.73a8.92,8.92,0,0,1,8.42-9.14c2.31,0,4.74.83,6.85-.12s3-3.1,4.54-4.62c2-1.88,4.79-2.58,7.51-2.78,2.12-.16,4.78.24,7-.24a5.56,5.56,0,0,0,2.73-1.32c1.13-1,1.63-2.61,2.58-3.81,1.89-2.33,5.16-2.91,8.12-3.3,4.85-.63,10.07-1.17,14.79.4,4.14,1.38,6.43,5.35,11.11,5,2.56-.17,5-1.12,7.52-1.51,3.5-.53,7.11.29,9.34,3.23,1.55,2,1.29,5.74,3.79,7a7.15,7.15,0,0,0,2.9.47,14.81,14.81,0,0,1,9.42,3.95c7.12,6.92,3.38,15.67,2.78,24.06-.35,4.92,2.28,8.72,4.33,13,1.86,3.89,2.85,8.93,0,12.17-1.32,1.51-3.3,2.4-4.36,4.1-1.49,2.35-.87,3.84-2.57,5.3a6.16,6.16,0,0,1-4,1.35,5.29,5.29,0,0,1-3.07-1A3.21,3.21,0,0,1,2076.68,106.78Z"/><path class="cls-8" d="M2075.34,100.87c1,2.76.69,4.57,1.34,5.91-.91,5.11-.58,10.66-3.32,15.06a31.36,31.36,0,0,1-4.86,5.35c-4.63,4.54-7.8,9.61-11,15.15-2.88,5-6,10-10.78,13.41a23,23,0,0,1-14.09,4.28c-9.21-.31-17.48-6.07-23.74-12.43a56.44,56.44,0,0,1-13.7-23.51l-.31-.58c3.35-1.63,4.7-7.11,3.4-10.8-.95-2.72-3.22-3.73-2.86-6.36.18-1.36,1.19-2.48,1.48-3.82.54-2.5-1.52-4.84-1.78-7.39-.33-3.31,2.39-6.34,2.12-9.65-.14-1.81-1.08-3.92.17-5.23a8.2,8.2,0,0,1,1.88-1.1c2.84-1.66,2.94-5.62,5.56-7.5,3.15-2.26,7.66-.91,10.77-3.35,1.22-1,2.08-2.45,3.52-3,3-1.2,6.13,2.08,9.27,1.45,1.9-.37,3.27-2.09,5.05-2.84,3.07-1.28,6.46.52,9.73,1.11a13.52,13.52,0,0,0,9.58-1.92c2.6-1.68,3.31-.88,4.54,1.6a12.11,12.11,0,0,0,8.74,6.44c1.87.31,3.54-.25,4.58,1.71.81,1.56.2,3.49.47,5.16.59,3.59,5.05,6.59,4.28,10.32-.48,2.32-3,3.89-3.21,6.25S2074,97,2075.34,100.87ZM2062.25,77s-.3-.29-.85-.73-1.35-1.05-2.34-1.71c-.27-.16-.47-.32-.81-.52l-.87-.51c-.59-.33-1.23-.68-1.94-1a14.41,14.41,0,0,0-2.28-.84,19,19,0,0,0-2.43-.52,18.25,18.25,0,0,0-2.5-.16,14,14,0,0,0-2.43.21,14.5,14.5,0,0,0-4.06,1.28,12.66,12.66,0,0,0-2.53,1.57,10.21,10.21,0,0,0-.84.75l1.08-.23c.68-.15,1.65-.35,2.78-.52a33.44,33.44,0,0,1,3.82-.31c.7,0,1.4,0,2.11,0s1.44.12,2.17.22,1.45.23,2.17.38,1.37.32,2.05.53l2,.6,1.81.53c1.14.35,2.12.58,2.82.73S2062.25,77,2062.25,77Zm-1.68,7.1a1.35,1.35,0,0,0-.43-1.3,11.17,11.17,0,0,0-3.55-2.35,14.33,14.33,0,0,0-5.44-1.38c-.32,0-.65,0-1,0a18.27,18.27,0,0,0-9.24,2.72,3.07,3.07,0,0,0-.92.74c-.85,1.12.62,1.9,1.48,2.37A20.33,20.33,0,0,0,2057.45,86C2058.47,85.66,2060.27,85.05,2060.56,84.07Zm-15.47,50.44a3.77,3.77,0,0,1-1-.08,2.6,2.6,0,0,1-.9-.38c-.29-.2-.6-.52-1-.87a14.84,14.84,0,0,0-3.12-2.27,4.44,4.44,0,0,0-2.07-.51c-.24,0-.44,0-.65.06-.76.08-1.47.23-2.17.37l-2,.46c-.3.07-.59.13-.78.15a1.52,1.52,0,0,1-.23,0h-.09l-.12,0s-.07,0-.07,0,0,0,0,0a3.32,3.32,0,0,0-.59-.42,5.05,5.05,0,0,0-1.07-.45,5.46,5.46,0,0,0-2-.21,5.17,5.17,0,0,0-2.69.93,4,4,0,0,0-.77.69,8.33,8.33,0,0,1,1-.16,6.47,6.47,0,0,1,2.37.17,5.73,5.73,0,0,1,1.32.57,4.25,4.25,0,0,1,.59.43c.08.08,0,.08.16.21a2,2,0,0,0,.36.31c.15.1.23.16.37.24l.12.06.22.09a2.1,2.1,0,0,0,.4.14,3.79,3.79,0,0,0,.78.12,7.09,7.09,0,0,0,1.28-.09c.75-.1,1.43-.25,2.12-.39l2-.42a4.17,4.17,0,0,1,.65-.09,3.77,3.77,0,0,1,.67.13c.48.15,1.12.44,1.66.65l1.55.66a6.34,6.34,0,0,0,1.53.52,2.65,2.65,0,0,0,1.32-.08,2.5,2.5,0,0,0,.7-.33Zm-7.7-16.66,0-.29-.82,0c-.53,0-1.3,0-2.27-.12a31.17,31.17,0,0,1-3.45-.47,15.81,15.81,0,0,1-4.1-1.36c-1.32-.69-2.77-1.81-2.87-2.92a10,10,0,0,1,.18-2.52c.13-1,.27-2,.39-3.07.51-4.17,1.05-8.63,1.78-13.09.35-2.24.77-4.41,1.1-6.69a17.44,17.44,0,0,0,.14-3.47,8.89,8.89,0,0,0-.9-3.44,6.58,6.58,0,0,0-2.34-2.61,10.47,10.47,0,0,0-2.93-1.23,20.24,20.24,0,0,0-5.57-.75,21,21,0,0,0-8.11,1.68,22.23,22.23,0,0,0-2.08,1.05l-.69.43.14.24.73-.37a21.16,21.16,0,0,1,2.08-.9,20.28,20.28,0,0,1,7.92-1.13,19.21,19.21,0,0,1,5.18,1c1.77.6,3.49,1.56,4.18,3.27a7.29,7.29,0,0,1,.59,2.79,16,16,0,0,1-.28,3.12c-.4,2.1-1,4.35-1.41,6.55-.93,4.44-1.88,8.89-2.48,13.12-.13,1.06-.27,2.1-.36,3.13a10.68,10.68,0,0,0,0,3.43,5.55,5.55,0,0,0,2.05,3q.33.24.66.45l.16.1.13.07.07,0,.3.15a11.38,11.38,0,0,0,1.3.6,15,15,0,0,0,4.84.95,21.61,21.61,0,0,0,3.67-.2c1-.14,1.78-.28,2.3-.4Zm-1.56,27.68a1.32,1.32,0,0,0,0-.37l-1.08-.27a7.94,7.94,0,0,0-.78-.16l-.36,0a3.22,3.22,0,0,0-.33,0l-.15,0-.24,0-.32.09-.74.28-1,.43a1.36,1.36,0,0,0,.07.37,2.33,2.33,0,0,0,.42.77,2.49,2.49,0,0,0,.93.68,2.1,2.1,0,0,0,.66.18l.25,0h.36a2.7,2.7,0,0,0,1.26-.4,2.38,2.38,0,0,0,.81-.82A2.17,2.17,0,0,0,2035.83,145.53Zm-12.6-58.15c.67-1.1-.47-2.13-1.37-2.64a16.79,16.79,0,0,0-8.5-2.12,30.85,30.85,0,0,0-5.72.74,14.34,14.34,0,0,0-3.3,1.07c-.46.23-1.26.58-1.41,1.13-.35,1.28,2.71,2.78,3.35,3.2a16.07,16.07,0,0,0,7.07,2.11,15.88,15.88,0,0,0,6.73-1.2A6.38,6.38,0,0,0,2023.23,87.38Z"/><path d="M2061.39,76.25c.55.44.85.73.85.73s-.4-.06-1.1-.21-1.67-.38-2.82-.73l-1.81-.53-2-.6c-.68-.21-1.36-.38-2.05-.53s-1.43-.28-2.17-.38-1.45-.17-2.17-.22-1.41-.07-2.11,0a33.44,33.44,0,0,0-3.82.31c-1.13.17-2.1.37-2.78.52l-1.08.23a10.21,10.21,0,0,1,.84-.75,12.66,12.66,0,0,1,2.53-1.57,14.5,14.5,0,0,1,4.06-1.28,14,14,0,0,1,2.43-.21,18.25,18.25,0,0,1,2.5.16,19,19,0,0,1,2.43.52,14.41,14.41,0,0,1,2.28.84c.7.32,1.35.67,1.94,1l.87.51c.33.2.54.36.81.52C2060,75.2,2060.84,75.81,2061.39,76.25Z"/><path class="cls-1" d="M2060.13,82.77a1.35,1.35,0,0,1,.43,1.3c-.29,1-2.09,1.59-3.12,2a19.92,19.92,0,0,1-7.26,1.08v0c1.33,0,2.41-1.75,2.41-3.9s-1.08-3.9-2.41-3.9V79c.31,0,.63,0,1,0a14.33,14.33,0,0,1,5.44,1.38A11.17,11.17,0,0,1,2060.13,82.77Z"/><path d="M2050.19,79.26c1.33,0,2.41,1.74,2.41,3.9s-1.08,3.9-2.41,3.9-2.41-1.75-2.41-3.9S2048.85,79.26,2050.19,79.26Z"/><path class="cls-1" d="M2050.19,87.06v0a19.91,19.91,0,0,1-8.69-2.27c-.85-.46-2.33-1.25-1.48-2.37a3.07,3.07,0,0,1,.92-.74,18.27,18.27,0,0,1,9.24-2.72v.25c-1.34,0-2.41,1.74-2.41,3.9S2048.85,87.06,2050.19,87.06Z"/><path d="M2044.12,134.43a3.77,3.77,0,0,0,1,.08l-.22.16a2.5,2.5,0,0,1-.7.33,2.65,2.65,0,0,1-1.32.08,6.34,6.34,0,0,1-1.53-.52l-1.55-.66c-.54-.21-1.18-.5-1.66-.65a3.77,3.77,0,0,0-.67-.13,4.17,4.17,0,0,0-.65.09l-2,.42c-.69.14-1.37.29-2.12.39a7.09,7.09,0,0,1-1.28.09,3.79,3.79,0,0,1-.78-.12,2.1,2.1,0,0,1-.4-.14l-.22-.09-.12-.06c-.14-.08-.22-.14-.37-.24a2,2,0,0,1-.36-.31c-.12-.13-.08-.13-.16-.21a4.25,4.25,0,0,0-.59-.43,5.73,5.73,0,0,0-1.32-.57,6.47,6.47,0,0,0-2.37-.17,8.33,8.33,0,0,0-1,.16,4,4,0,0,1,.77-.69,5.17,5.17,0,0,1,2.69-.93,5.46,5.46,0,0,1,2,.21,5.05,5.05,0,0,1,1.07.45,3.32,3.32,0,0,1,.59.42s0,0,0,0,.06,0,.07,0l.12,0h.09a1.52,1.52,0,0,0,.23,0c.2,0,.48-.08.78-.15l2-.46c.7-.14,1.41-.29,2.17-.37.21,0,.4,0,.65-.06a4.44,4.44,0,0,1,2.07.51,14.84,14.84,0,0,1,3.12,2.27c.4.35.72.67,1,.87A2.6,2.6,0,0,0,2044.12,134.43Z"/><path d="M2037.36,117.56l0,.29-.81.18c-.52.13-1.29.27-2.3.4a21.61,21.61,0,0,1-3.67.2,15,15,0,0,1-4.84-.95,11.38,11.38,0,0,1-1.3-.6l-.3-.15-.07,0-.13-.07-.16-.1q-.33-.21-.66-.45a5.55,5.55,0,0,1-2.05-3,10.68,10.68,0,0,1,0-3.43c.09-1,.23-2.07.36-3.13.6-4.24,1.55-8.68,2.48-13.12.45-2.2,1-4.45,1.41-6.55a16,16,0,0,0,.28-3.12,7.29,7.29,0,0,0-.59-2.79c-.69-1.71-2.41-2.67-4.18-3.27a19.21,19.21,0,0,0-5.18-1,20.28,20.28,0,0,0-7.92,1.13,21.16,21.16,0,0,0-2.08.9l-.73.37-.14-.24.69-.43a22.23,22.23,0,0,1,2.08-1.05,21,21,0,0,1,8.11-1.68,20.24,20.24,0,0,1,5.57.75,10.47,10.47,0,0,1,2.93,1.23,6.58,6.58,0,0,1,2.34,2.61,8.89,8.89,0,0,1,.9,3.44,17.44,17.44,0,0,1-.14,3.47c-.32,2.28-.75,4.45-1.1,6.69-.73,4.45-1.27,8.92-1.78,13.09-.13,1-.27,2.07-.39,3.07a10,10,0,0,0-.18,2.52c.1,1.11,1.56,2.23,2.87,2.92a15.81,15.81,0,0,0,4.1,1.36,31.17,31.17,0,0,0,3.45.47c1,.08,1.74.08,2.27.12Z"/><path d="M2035.84,145.16a1.32,1.32,0,0,1,0,.37,2.17,2.17,0,0,1-.29.83,2.38,2.38,0,0,1-.81.82,2.7,2.7,0,0,1-1.26.4h-.36l-.25,0a2.1,2.1,0,0,1-.66-.18,2.49,2.49,0,0,1-.93-.68,2.33,2.33,0,0,1-.42-.77,1.36,1.36,0,0,1-.07-.37l1-.43.74-.28.32-.09.24,0,.15,0a3.22,3.22,0,0,1,.33,0l.36,0a7.94,7.94,0,0,1,.78.16Z"/><path class="cls-1" d="M2021.86,84.74c.9.51,2,1.55,1.37,2.64a6.38,6.38,0,0,1-3.16,2.28,15.88,15.88,0,0,1-6.73,1.2v-.32c1.34,0,2.41-1.74,2.41-3.9s-1.07-3.9-2.41-3.9v-.13a16.79,16.79,0,0,1,8.5,2.12Z"/><path d="M2013.35,82.74c1.34,0,2.41,1.74,2.41,3.9s-1.07,3.9-2.41,3.9-2.41-1.74-2.41-3.9S2012,82.74,2013.35,82.74Z"/><path class="cls-1" d="M2013.35,82.62v.13c-1.33,0-2.41,1.74-2.41,3.9s1.08,3.9,2.41,3.9v.32a16.07,16.07,0,0,1-7.07-2.11c-.63-.42-3.69-1.92-3.35-3.2.15-.55.95-.9,1.41-1.13a14.34,14.34,0,0,1,3.3-1.07A30.85,30.85,0,0,1,2013.35,82.62Z"/><path class="cls-1" d="M1930.77,424.68c1.07,2.79,1.28,4.39.6,5.15-1,1.15-3.85.4-5.35-.07-9.12-2.87-18.36-9.75-25.33-15.08-3.14-2.4-6.79-5.29-8-4.35-.78.62.22,2.43,0,6.35-.06,1.44-.25,5.79-1.67,6.14s-3-3.45-8.68-9.12c-1.65-1.65-2.05-1.87-2.5-1.8-2.32.36-2.11,7.89-5.53,18.64-1.75,5.53-2.92,9.07-5.15,9.39-3.45.5-7.3-7-8.25-8.83-1.7-3.28-4.62-10.36-7.85-16.23-.31-.57-.93-1.66-1.78-1.67-1.59,0-2.32,3.84-4.47,7.93s-6.49,9.73-8.68,9-2.84-8.76-2.32-14.06c.31-3.19.48-4.4-.14-4.73-2-1.07-9.77,9.59-19.35,17.19a24.15,24.15,0,0,1-8.56,3.84c-2.7.67-3.82.45-4.21-.13-.1-.15-.31-.55.37-3a19.72,19.72,0,0,1,.88-2.73c.1-.23,3.55-9.69,10.42-28.55a175.3,175.3,0,0,1,102.39-3.46q5.35,13.38,11.52,26.32C1929.69,421.86,1930,422.8,1930.77,424.68Z"/><path class="cls-1" d="M1914.48,114.28c5.7,0,5.64,2,3.57,6.67a39.46,39.46,0,0,1-2.12,4.37c-4.58,7.71-9.29,15.62-12,23.13-13.77,4.92-28.64,6.61-43.22,6.95a195.67,195.67,0,0,1-44.72-4.2c-5.46-8.23-11.59-16-17.21-24.15a4.23,4.23,0,0,1-.7-3.32,3.26,3.26,0,0,1,.78-1.51c1.52-1.63,4.84-.95,5.78-.75,8.26,1.72,25.23,15.81,27.94,13.76,1.83-1.4-3.36-9.9-.95-11.74,1.06-.81,3.08,0,5.32,1.07s6.67,5.32,9.37,4.59c2.45-.66,1.66-2.3,1.94-4.62a31.86,31.86,0,0,1,3.5-11.68c2.34-4.33,8.52-13.77,10.84-4.69,1.12,4.41,6.67,25,12.68,15.38a39,39,0,0,1,2.45-3.91,3.67,3.67,0,0,1,2-1.22c2.41-.23,5.09,7.57,6.27,11.39a1,1,0,0,0,1.74.27c1-1.44,1.73-3.1,2.78-4.48a28.58,28.58,0,0,1,5-5,27.13,27.13,0,0,1,8.34-4.9C1907.67,114.29,1910.58,114.28,1914.48,114.28Z"/><path class="cls-3" d="M2013.34,90.87a16.07,16.07,0,0,1-7.07-2.11c-.63-.42-3.69-1.92-3.35-3.2.15-.55.95-.9,1.41-1.13a14.34,14.34,0,0,1,3.3-1.07,30.85,30.85,0,0,1,5.72-.74,16.79,16.79,0,0,1,8.5,2.12c.9.51,2,1.55,1.37,2.64a6.38,6.38,0,0,1-3.16,2.28A15.88,15.88,0,0,1,2013.34,90.87Z"/><path class="cls-3" d="M2050.19,79c.31,0,.63,0,1,0a14.33,14.33,0,0,1,5.44,1.38,11.17,11.17,0,0,1,3.55,2.35,1.35,1.35,0,0,1,.43,1.3c-.29,1-2.09,1.59-3.12,2a20.33,20.33,0,0,1-15.95-1.19c-.85-.46-2.33-1.25-1.48-2.37a3.07,3.07,0,0,1,.92-.74A18.27,18.27,0,0,1,2050.19,79Z"/><path class="cls-1" d="M197.81,41.74H160.17V39.27l25.67-.14a18,18,0,0,0-2.47-6.64q-2.21-4-8.35-4.17c-.49,0-1,0-1.44.05l-.22-3c.72-.06,1.47-.09,2.23-.09a27.13,27.13,0,0,1,13.94,3.64Q195.77,32.58,197.81,41.74Z"/><path class="cls-1" d="M199.25,68.86a27.36,27.36,0,0,1-8.79,9.83q-5,3.17-12.69,3.17a23.44,23.44,0,0,1-13.47-4.12A28.68,28.68,0,0,1,154.79,67a29.82,29.82,0,0,1-3.43-13.81,33.48,33.48,0,0,1,1.17-8.08,34,34,0,0,1,3.84-9.14,22.65,22.65,0,0,1,7.5-7.57,20.22,20.22,0,0,1,9.49-3l.22,3a14.46,14.46,0,0,0-8.49,3.4,13.79,13.79,0,0,0-4.92,7.5v2.47H160V51a77.29,77.29,0,0,0,3.24,10,29,29,0,0,0,7.27,10.12q5.24,5,13.72,5a17.12,17.12,0,0,0,6.16-.81,16.22,16.22,0,0,0,4.39-2.92A45.42,45.42,0,0,1,199.25,68.86Z"/><path class="cls-1" d="M138.85,53.58a145.53,145.53,0,0,1-1.13,17.63q-1.13,9.23-4.34,10.78h-4.19V53q0-8.71-2.57-13.67t-6-6.76a14.55,14.55,0,0,0-6.73-1.8,13,13,0,0,0-7,1.88l-2.31-1.92A37.61,37.61,0,0,1,110.42,28a20.52,20.52,0,0,1,5.78-1q11.59,0,17.12,7.6T138.85,53.58Z"/><path class="cls-1" d="M104.58,30.71l2.31,1.92a13.26,13.26,0,0,0-2.6,2.1,12.44,12.44,0,0,0-4,8.45V82a6.81,6.81,0,0,1-3.31.7c-.5,0-1.43,0-2.82-.14s-2.56-.14-3.52-.14a137.77,137.77,0,0,0,2.15-15.56q.56-6.41.57-17.89,0-8.88-.36-17.12c-.23-5.49-.5-9.21-.77-11.16a16.05,16.05,0,0,0-2.59-7A21.29,21.29,0,0,0,85.42,9c-1.48-1.17-2.48-1.93-3-2.3a62.51,62.51,0,0,0,9.1-2.47A40,40,0,0,0,97,1.74,9.74,9.74,0,0,1,99.58.5c.21,0,.51.19.88.57V32.94C101,32.67,102.37,31.94,104.58,30.71Z"/><path class="cls-1" d="M1,7.4H78.11C77,9,75.71,10.89,74.21,12.92a66.83,66.83,0,0,0-4,6q-5.77-4.61-7.34-5.62A11.36,11.36,0,0,0,59,11.88,44.19,44.19,0,0,1,54,10.57H44.95v73H36.56V12.47a.78.78,0,0,0,.17-.26.69.69,0,0,0,.11-.32q0-1.31-6.76-1.31A25.52,25.52,0,0,0,20,12.34,48.06,48.06,0,0,0,9.76,19Q8.49,17.19,5.7,13.69T1,7.4Z"/><path class="cls-9" d="M78.11,7.4C77,9,75.71,10.89,74.21,12.92a66.83,66.83,0,0,0-4,6q-5.77-4.61-7.34-5.62A11.36,11.36,0,0,0,59,11.88,44.19,44.19,0,0,1,54,10.57H44.95v73H36.56V12.47a.78.78,0,0,0,.17-.26.69.69,0,0,0,.11-.32q0-1.31-6.76-1.31A25.52,25.52,0,0,0,20,12.34,48.06,48.06,0,0,0,9.76,19Q8.49,17.19,5.7,13.69T1,7.4Z"/><path class="cls-9" d="M106.9,32.63a13.26,13.26,0,0,0-2.6,2.1,12.44,12.44,0,0,0-4,8.45V82a6.81,6.81,0,0,1-3.31.7c-.5,0-1.43,0-2.82-.14s-2.56-.14-3.52-.14a137.77,137.77,0,0,0,2.15-15.56q.56-6.41.57-17.89,0-8.88-.36-17.12c-.23-5.49-.5-9.21-.77-11.16a16.05,16.05,0,0,0-2.59-7A21.29,21.29,0,0,0,85.42,9c-1.48-1.17-2.48-1.93-3-2.3a62.51,62.51,0,0,0,9.1-2.47A40,40,0,0,0,97,1.74,9.74,9.74,0,0,1,99.58.5c.21,0,.51.19.88.57V32.94c.54-.26,1.91-1,4.12-2.22A37.61,37.61,0,0,1,110.42,28a20.52,20.52,0,0,1,5.78-1q11.59,0,17.12,7.6t5.53,19a145.53,145.53,0,0,1-1.13,17.63q-1.13,9.23-4.34,10.78h-4.19V53q0-8.71-2.57-13.67t-6-6.76a14.55,14.55,0,0,0-6.73-1.8A13,13,0,0,0,106.9,32.63Z"/><path class="cls-9" d="M160.17,41.74H160V51a77.29,77.29,0,0,0,3.24,10,29,29,0,0,0,7.27,10.12q5.24,5,13.72,5a17.12,17.12,0,0,0,6.16-.81,16.22,16.22,0,0,0,4.39-2.92,45.42,45.42,0,0,1,4.46-3.48,27.36,27.36,0,0,1-8.79,9.83q-5,3.17-12.69,3.17a23.44,23.44,0,0,1-13.47-4.12A28.68,28.68,0,0,1,154.79,67a29.82,29.82,0,0,1-3.43-13.81,33.48,33.48,0,0,1,1.17-8.08,34,34,0,0,1,3.84-9.14,22.65,22.65,0,0,1,7.5-7.57,20.22,20.22,0,0,1,9.49-3c.72-.06,1.47-.09,2.23-.09a27.13,27.13,0,0,1,13.94,3.64q6.24,3.64,8.28,12.8Z"/><g id="_Group_4" data-name="&lt;Group&gt;"><path class="cls-4" d="M274.18,138.63c6.52-3.2,12.65-6.85,19.5-9.44A108.42,108.42,0,0,1,336.13,122c28.71,1.14,59.36,15.82,70.53,43.63a67.64,67.64,0,0,1,4.18,16.44,92.19,92.19,0,0,1,.24,24.06,98.6,98.6,0,0,1-6.62,25.28,112.34,112.34,0,0,1-12.28,21.86c-22.19,31.42-48.38,39.26-49.51,39.17a2.21,2.21,0,0,0-1.27.28,2.27,2.27,0,0,0-.57.73c-1.88,2.87,3.4,3.91,5.89,5.47,7,4.41,12.88,10.35,18.45,16.38,23.53,25.46,40.75,54.1,57.6,84.15,13.39,23.86,15.68,28.13,21.38,37.78,13.1,22.2,26.77,42.37,47.36,58.47,6.57,5.15,13.8,9.88,22,11.4,13.14,2.45,26.68-4,36.13-13.41,11.46-11.45,17-28,10-43.36-1.79-3.94-4.32-7.59-5.23-11.82a3,3,0,0,1,.5-2.88,3.09,3.09,0,0,1,2.84-.27c10.24,2.6,16.64,10.89,20.1,20.53A59.12,59.12,0,0,1,574.94,502c-8.31,16.4-23.36,27.44-41.3,29.69a71.6,71.6,0,0,1-28.34-2.49c-7.26-2.08-16.61-5.89-34.8-19.88A305.54,305.54,0,0,1,426.75,468c-10.12-11.57-16.53-20.48-29.33-38.29-14.1-19.58-14.66-21.81-36.3-52.7,0,0-10.05-14.36-30.82-39.78-6.25-7.66-10.63-12.76-17.9-17.9A90.36,90.36,0,0,0,284,306.44c-3.29-.89-2.27-.39-13.92-3,0,0-2.57-.58-10.44-1.49-16-1.87-6.8,30.42-6,37.56,2.53,22.25,4,44.72,2.12,67.08-3.17,38.75-15.2,80.85-52.73,98.63-6.08,2.87-14.09,6.58-25.31,7.15-5.12.25-15.22.65-26.14-5A44.8,44.8,0,0,1,135,492.9c-4.21-6.32-8.32-16.46-7.3-24.13.7-5.34,5.23-10.58,10.58-10.05a8,8,0,0,1,7,6.32,3.34,3.34,0,0,1-.82,2.87c-2.37,2.45-3.58-2-5.45-2a2.59,2.59,0,0,0-1.88,1.23,3.68,3.68,0,0,0-.43,2.1,11.58,11.58,0,0,0,.33,3.51,14,14,0,0,0,1.62,3.57c7.52,11.6,17.59,14.53,17.59,14.53,8.74,2.55,16.09-.25,21.42-2.28,10.44-4,16.65-10.72,22.18-16.83a90.31,90.31,0,0,0,16.05-25.24c6-14.3,6.69-25.88,7.65-46.66.54-11.66.1-22.31-.76-43.59-.8-19.53-1.2-29.28-2.3-39.77-4.06-38.76-14.7-76.69-22.57-114.78-3-14.45-5.69-29-9.83-43.17a168.24,168.24,0,0,0-7.39-20.68l-.13-.28c13.72,6.8,30.63,9.52,45.48,9.81a123.1,123.1,0,0,0,45.2-7.6,10.12,10.12,0,0,0,2.41-.88Zm82.67,104.24c15.75-25.78,30.3-73.92-10.05-85.6-9.34-2.7-19.28-2.37-28.91-1.07-15.73,2.1-31.68,6.51-45.66,14.06a34.93,34.93,0,0,0-8.77,6.64c-5.91,6.15-9.09,14.12-11.34,23.22a233.93,233.93,0,0,0-6.68,64.07c.51,14.84,8.08,24.16,23.2,26.18,17.51,2.34,35.64-1.81,51-10.55S347.63,258,356.85,242.87Z"/><path class="cls-1" d="M276.21,102.68c7.1-2.38,11.55-1.2,7,7.07-4.17,7.52-9.07,15-12.45,22.93-1.47,3.43-3,7.72.52,7.07a123.1,123.1,0,0,1-45.2,7.6c-14.85-.29-31.76-3-45.48-9.81-1.67-3.43-8.92-13.44-5.05-15.93,2.52-1.62,8.29.25,10.87,1a24.67,24.67,0,0,1,7.78,4.06c2.87,2.16,4.17,4,4.58,3.73s-.42-1.85-2-5.79c-2.42-6.08-2.41-6.94-2-7.44,1-1.14,3.81-.22,6.4.61a16.19,16.19,0,0,1,7.09,3.89,15,15,0,0,1,2.5,3.38A.12.12,0,0,0,211,125c-1.07-5,1.08-10.06,3.92-14.14,3-4.27,7.35-8.55,8.91-13.7a.73.73,0,0,1,1.38-.07,11.34,11.34,0,0,0,2.43,3.94,50.82,50.82,0,0,0,4.49,4.33,23,23,0,0,1,3.64,4c.66,1,.59,1.12,2.22,4.1a.48.48,0,0,1,0,.12l1.42,4.07a.74.74,0,0,0,1.37.07,11.21,11.21,0,0,1,3.64-3.95,79.43,79.43,0,0,1,8.92-5.7,1.28,1.28,0,0,1,1.86.84c.84,3.85.23,7.5-.73,11.25a.56.56,0,0,0,1,.52c1.47-1.63,2.31-3.88,3.64-5.69a32.9,32.9,0,0,1,4.25-5,30.68,30.68,0,0,1,7.7-5.19A39.85,39.85,0,0,1,276.21,102.68Z"/></g><g id="_Group_5" data-name="&lt;Group&gt;"><path class="cls-1" d="M576.16,121.53c6.43,2.07-1.93,11.34-3.45,14.42s-3,6.32-4.32,9.56c-16.58,8.57-35.53,11.17-54,11.6a195.6,195.6,0,0,1-52.23-5.94c-7.48-10.73-14.62-14.87-13-18.13,1.81-3.57,12.59-2.92,20.44.23s11.66,8.33,13.22,7.19c2.53-1.83-6.49-16-3.72-18.09,1.71-1.32,7.22,2.45,10.67,5.79,2.1,2.05,3.6,5.11,5.48,7.45a1.25,1.25,0,0,0,2.2-.81,28.32,28.32,0,0,1,2.82-13.51c.81-1.6,3-5.45,5.44-9.22a47.14,47.14,0,0,0,3-5.1c.47-.91.87-1.78,1.21-2.57a1.32,1.32,0,0,1,2.38-.08c.42.82.89,1.68,1.43,2.58a41.22,41.22,0,0,0,3.09,4.4c4,4.86,5.85,3.92,8.78,7.63,2.07,2.6,3.4,5.67,5,10.19.69,2,2.37,8.07,4.44,3.08A39.62,39.62,0,0,1,543.12,120c4.77-4.93,6.54,1.64,5.27,5.72-4.49,14.39,4.69,1,9.37-1,4.85-2.15,10.2-2.8,15.45-3.37A7.23,7.23,0,0,1,576.16,121.53Z"/><path class="cls-1" d="M570.72,430.6c1.89,2,11.51,10.19,1.65,9.73a8.27,8.27,0,0,1-3-.75c-5.45-2.46-11.51-2.83-17.15-4.65-6.8-2.19-11.42-6.32-16.38-11.22-4.74-4.7-4.32-2.33-2.88,2.87,1.81,6.53,4.52,14.69-4.89,7.56a31.63,31.63,0,0,1-5.37-5,32.45,32.45,0,0,1-4.36-6.89.51.51,0,0,0-1,.17,40.24,40.24,0,0,1-6.69,20.71,1.14,1.14,0,0,1-2-.16,30.42,30.42,0,0,0-3.84-6.4c-3.6-4.42-6.59-6.31-8.31-11.1a17.25,17.25,0,0,1-1-4.71c-.09-.45-.23-1-.4-1s-.31.63-.37.76a25.92,25.92,0,0,1-5.47,8.52c-2.08,2.07-13.73,8.37-9.94,1.05a28.62,28.62,0,0,0,3.19-13.71c-.07-3.45-2.62-2.56-4.14-.58a34,34,0,0,1-20.71,12.42c-4.92.91-21.88,1.58-13.26-7.07a65,65,0,0,0,7.71-9.82,0,0,0,0,0,0,0c8.85-5.1,17.9-10,27.61-13.13,12.38-4,25.19-4.27,38-2.69,13.5,1.66,27.13,5.82,37.71,14,1.52,2.6,3.47,5.7,5.83,9.07A91.41,91.41,0,0,0,570.72,430.6Z"/><path class="cls-4" d="M568.39,145.51A200.36,200.36,0,0,0,561,166.44c-6,20.41-9.27,41.54-11.6,62.67-4.26,38.45-7.48,77.88-8.17,116.59a197.78,197.78,0,0,0,.95,23.18c.9,9,1.36,13.46,3.31,19.57a87.63,87.63,0,0,0,6.64,14.84c.67,1.28,1.83,3.46,3.49,6.24-10.58-8.15-24.21-12.3-37.71-14-12.86-1.58-25.66-1.33-38,2.69-9.72,3.16-18.76,8-27.61,13.13.73-1.08,1.44-2.2,2.16-3.37a86.25,86.25,0,0,0,7.9-14.17l0-.07A280.7,280.7,0,0,0,476.52,361c1.78-5.2,3.22-13.64,5.22-24.5,4.78-26,6.64-60.54,6-80.62-1.57-47.29-7.1-71-21-97.26a73,73,0,0,0-4.54-7.43,195.6,195.6,0,0,0,52.23,5.94C532.86,156.68,551.81,154.08,568.39,145.51Z"/><path class="cls-5" d="M480.48,318.68c.33.39,1.81,2.11,1.23,3.84s-2.91,2.26-3.89,2.47a7.14,7.14,0,0,1-4-.29c-1.2-.47-.84-.75-3.24-2.18-1.08-.66-1.78-1-1.78-1.48,0-.27.55-.74.87-1a16.39,16.39,0,0,0,4.12-2.56,6.31,6.31,0,0,1,2.8-.73A5.72,5.72,0,0,1,480.48,318.68Z"/><path class="cls-5" d="M479.16,309.78a3.6,3.6,0,0,1,0,2.08,3.09,3.09,0,0,1-.55,1,28.76,28.76,0,0,1-3.06,3.21c-.52.47-1.12,1-1.74,1.45l-.38.16c-.74.31-3.54,2.25-3.54,2.25l-.2.15a1.18,1.18,0,0,1-1.06,0c-.06,0-.08-.23-.06-.51a10.69,10.69,0,0,0,.9-4.1,9.83,9.83,0,0,0,.08-1.26.18.18,0,0,0,0,0s1.23-5.46,2.52-6.62a5,5,0,0,1,1.12-.77,3.84,3.84,0,0,1,2.16-.22,4.47,4.47,0,0,1,2.9,1.36A4.23,4.23,0,0,1,479.16,309.78Z"/><path class="cls-5" d="M475.24,330.85a5.26,5.26,0,0,1-.53,3.54,5.12,5.12,0,0,1-3.84,2.07,4.64,4.64,0,0,1-3.54-.89A5.45,5.45,0,0,1,466,333a10.08,10.08,0,0,1-.83-4.34,23.06,23.06,0,0,0,2.07-3.87c.52-1.19,1.25-3.09,1.06-3.19l.08-.1a34.44,34.44,0,0,1,2.76,2.34,14.67,14.67,0,0,1,3,3.79A9.34,9.34,0,0,1,475.24,330.85Z"/><path class="cls-5" d="M473.39,317.67l.38-.16a16.39,16.39,0,0,1-4.12,2.56l.2-.15S472.65,318,473.39,317.67Z"/><path class="cls-5" d="M469.15,310.75a12.52,12.52,0,0,1,.37,3.5,49.63,49.63,0,0,0-1,5.35,1.37,1.37,0,0,1-.65.57c-2.09.78-5.86-5.07-6.16-5.56-1.38-2.17-4.11-6.47-2.38-8.9a4.47,4.47,0,0,1,3.85-1.49,6,6,0,0,1,4.15,2.68A9.48,9.48,0,0,1,469.15,310.75Z"/><path class="cls-5" d="M469.52,314.24a9.83,9.83,0,0,1-.08,1.26,10.69,10.69,0,0,1-.9,4.1A49.63,49.63,0,0,1,469.52,314.24Z"/><path class="cls-5" d="M468.41,321.54l-.08.1c-.18-.09-1.36,1.72-2.18,3.72a9.89,9.89,0,0,0-.95,3.31v0a18.68,18.68,0,0,1-2.07,2.57c-1.55,1.59-2.53,2.61-4.13,2.77a4.32,4.32,0,0,1-3.66-1.36c-1.29-1.62-.55-3.77-.42-4.19.51-1.49,1.57-2.31,3-3.42a14.2,14.2,0,0,1,2.1-1.36c3.74.14,7.81-2.18,7.81-2.53h0l0,0C468.07,321.27,468.25,321.4,468.41,321.54Z"/><path class="cls-5" d="M468.33,321.64c.18.09-.54,2-1.06,3.19a23.06,23.06,0,0,1-2.07,3.87v0a9.89,9.89,0,0,1,.95-3.31C467,323.36,468.14,321.55,468.33,321.64Z"/><path class="cls-5" d="M467.89,321.13l0,0c-.08-.25-3.31.54-6,1.65a20.35,20.35,0,0,0-1.86.89,6.85,6.85,0,0,1-2.22-.42,5.43,5.43,0,0,1-2.54-1.89,4.34,4.34,0,0,1-.89-3.13,3,3,0,0,1,.7-1.71c.92-1,2.47-.89,3.25-.83,1.41.12,2.86.6,7.49,3.9C466.63,320.2,467.31,320.68,467.89,321.13Z"/><path class="cls-5" d="M467.85,321.17h0c0,.35-4.07,2.67-7.81,2.53a20.35,20.35,0,0,1,1.86-.89C464.54,321.71,467.77,320.91,467.85,321.17Z"/><path d="M454.36,408c-.72,1.17-1.43,2.28-2.16,3.37a0,0,0,0,1,0,0l-.76.44C452.46,410.62,453.44,409.34,454.36,408Z"/></g><g id="_Group_6" data-name="&lt;Group&gt;"><path class="cls-5" d="M1688.63,138.26a14.72,14.72,0,0,1,.52,6.87,13.22,13.22,0,0,1-2.7,6.76,11.52,11.52,0,0,1-5.93,3.57,20,20,0,0,1-7,.42c-3.27-.29-6.69-1.21-8.94-3.6a11.71,11.71,0,0,1-2.81-7.77,14.72,14.72,0,0,1,3.65-10.38,11,11,0,0,1,9-3.46,28.15,28.15,0,0,1,4,.46C1682.75,131.92,1687.06,133.84,1688.63,138.26Z"/><path d="M1677.74,115a3,3,0,0,1,2.72,3.87,3.41,3.41,0,0,1-3.61,2.13A3.58,3.58,0,0,1,1674,119a2.83,2.83,0,0,1,.84-3.33,3.52,3.52,0,0,1,1.72-.57C1676.93,115,1677.34,115,1677.74,115Z"/><path class="cls-6" d="M1666.16,127a6,6,0,0,1,.21,3.46,5.58,5.58,0,0,1-2.59,3.25,6.17,6.17,0,0,1-3.79.67,6.63,6.63,0,0,1-2.81-.85,6.9,6.9,0,0,1-2.92-3.49c-.86-2.28-.74-5,1.32-6.59a7.23,7.23,0,0,1,3.38-1.33C1662.7,121.54,1665.16,123.52,1666.16,127Z"/></g><circle class="cls-9" cx="2104.86" cy="419.3" r="8.91"/><path class="cls-1" d="M2101.75,414.12a14,14,0,0,1,2.59-.22,4.27,4.27,0,0,1,3,.85,2.6,2.6,0,0,1,.82,2,2.74,2.74,0,0,1-2,2.67v0a2.61,2.61,0,0,1,1.53,2.11,16.54,16.54,0,0,0,.81,2.87h-1.4a13.46,13.46,0,0,1-.7-2.5c-.31-1.44-.87-2-2.09-2h-1.27v4.53h-1.35Zm1.35,4.76h1.38c1.44,0,2.36-.79,2.36-2,0-1.35-1-1.94-2.4-2a5.59,5.59,0,0,0-1.33.12Z"/><g id="_Group_7" data-name="&lt;Group&gt;"><path class="cls-1" d="M1656.74,537.22a26.7,26.7,0,0,1,4.89-.78,11,11,0,0,1-4.94,3.78,23.93,23.93,0,0,1-7.18.83,18.49,18.49,0,0,1-10.57-3.18,61.09,61.09,0,0,1-10.76-10q-6-6.83-7.92-8.72a6.27,6.27,0,0,0-4.63-1.91c-.07.64-.16,1.75-.26,3.33s-.16,3.46-.16,5.62a69.23,69.23,0,0,0,1.27,14.16h-11.94c.14-2,.44-5,.9-9.2s.81-7.65,1-10.43.35-5.77.35-9q0-19.19-8.66-29.82c1.31.56,3.63.84,6.94.84a249.14,249.14,0,0,0,25.52-2q8.56,0,13.72,4.24t5.16,9.88a12.19,12.19,0,0,1-3.24,8.54,25.89,25.89,0,0,1-7.75,5.75,71.64,71.64,0,0,1-9.77,3.92q-5.27,1.68-5.62,1.87a19.16,19.16,0,0,0,5.09,2.7c2.29.87,3.9,1.54,4.84,2a7.59,7.59,0,0,1,2.74,2.62,55.19,55.19,0,0,0,8.88,10q5.77,5.3,9,5.3A9.39,9.39,0,0,0,1656.74,537.22Zm-23.42-33q6.55-5.26,6.55-10a7.11,7.11,0,0,0-3-5.77q-2.72-1.8-8.5-2.47a31.3,31.3,0,0,0-4.76-.28c-3.91,0-6.65.83-8.21,2.5s-2.32,4.12-2.32,7.33a77.76,77.76,0,0,0,.86,9.26c.57,4.28.92,7.43,1,9.47Q1626.76,509.43,1633.31,504.18Z"/><path class="cls-1" d="M1571.32,533.56a20.57,20.57,0,0,1-6.64,4.55,19,19,0,0,1-6.59,1.08,33.19,33.19,0,0,1-11.81-1.81,16.24,16.24,0,0,1-7.47-5.52,23.94,23.94,0,0,1-3.9-9.47,70.3,70.3,0,0,1-1.18-13.93,28.75,28.75,0,0,1,2.45-11.8,21.53,21.53,0,0,1,6.92-8.84,16.7,16.7,0,0,1,10.21-3.31h24.37v35.64q0,15.14,9.83,15.14a4.15,4.15,0,0,0,2-.68c.78-.46,1.56-1,2.34-1.46a17.72,17.72,0,0,1,2.39-1.33,9.72,9.72,0,0,1,3-.72,31,31,0,0,1-6.57,6.11,13.41,13.41,0,0,1-7.45,2,12.86,12.86,0,0,1-5.51-1.26,23.4,23.4,0,0,1-4.65-2.82A14.46,14.46,0,0,1,1571.32,533.56Zm-2.65-22.8q.65-10.06.65-15.72c0-3-.7-5.11-2.07-6.24s-3.71-1.69-7-1.69a12.87,12.87,0,0,0-9,3.52,22.58,22.58,0,0,0-5.87,8.95,31,31,0,0,0-2,10.91q0,14.34,5.53,19.35t9.19,5.44a18.22,18.22,0,0,0,6.49-1.76q3.59-1.62,3.59-4.16c0-.45,0-1.1-.06-2s-.07-1.5-.07-1.91Q1568,520.8,1568.67,510.75Z"/><path class="cls-1" d="M1524.17,512.49q0,9.11-4.68,14.92a29.67,29.67,0,0,1-11.53,8.73,53,53,0,0,1-13,3.86,73.18,73.18,0,0,1-10.59.91h-12V472.83a7.18,7.18,0,0,0-1.18-4.44,14.15,14.15,0,0,0-3.71-3.15,21.83,21.83,0,0,1-3.77-2.83c4.93,0,8.23.25,9.9.77s3.52,2,5.52,4.44a39.86,39.86,0,0,1,8-4.29,21.71,21.71,0,0,1,5.08-1.11l.28,2.37a13.16,13.16,0,0,0-7.53,2.22c-2.15,1.46-3.25,2.46-3.28,3,0,0-.05,1.14-.14,3.44q-.14,3.73-.15,6.65t.28,6.2c1.14-.18,2.25-.36,3.3-.57l.44,2.15a3.77,3.77,0,0,0-2.79,2.05,14.55,14.55,0,0,0-1.09,6.33c0,.68,0,1.81.06,3.38s.07,2.76.07,3.56v34.49a44.28,44.28,0,0,0,21-4.25,18.92,18.92,0,0,0,8-7.15c2-3.17,3-7.41,3-12.69a21.63,21.63,0,0,0-2.16-9.3,29.14,29.14,0,0,0-5.94-8.37,29.6,29.6,0,0,0-8.63-6,23,23,0,0,0-2.32-.92l.88-2.28a50.5,50.5,0,0,1,19.8,7.2Q1524.17,499.28,1524.17,512.49Z"/><path class="cls-1" d="M1506.44,464.59q3.05,1.94,3,6.48a10.69,10.69,0,0,1-2.26,7,26.35,26.35,0,0,1-6.81,5.52c-3,1.85-4.64,2.82-4.81,2.94l-.88,2.28a23.67,23.67,0,0,0-7.78-1.3,6.87,6.87,0,0,0-1.43.13l-.44-2.15a42.88,42.88,0,0,0,10.47-3.29,8.84,8.84,0,0,0,5.28-8.54,9.29,9.29,0,0,0-2.44-6.34,7.51,7.51,0,0,0-5.81-2.75l-.28-2.37a42.19,42.19,0,0,1,4.62-.23Q1503.4,462.66,1506.44,464.59Z"/><path class="cls-1" d="M1438,491.4c4.2,1.54,5.8,5.65,2.28,8.66a7.6,7.6,0,0,1-6.26,1.53,25.11,25.11,0,0,1-3-1,19.92,19.92,0,0,0-11.55-.27,18.45,18.45,0,0,0-7.71,4.46c-3.12,3-.77,5.32,2.21,7.79a30.12,30.12,0,0,1,7.57,8.84c3.54,6.77,2.79,14.85-1,21.53s-10.3,12-17.73,15.84c-1.87,1-4.49,2.08-5.52,3.85a1.73,1.73,0,0,0-.18.57h0a6.52,6.52,0,0,0-.16,5.45l-.12.08a2.31,2.31,0,0,1-2.54-.77c-4.57-7.56,12.05-18.17,15.65-24.07a22.35,22.35,0,0,0,2.52-16.11,37.74,37.74,0,0,0-6.9-14.58.81.81,0,0,0-1.2,0,22,22,0,0,0-2.1,3.22l-.13.23-2.61-.68c.53-1,1-1.93,1.49-2.9a13.21,13.21,0,0,0,1.4-3.32c0-.05,0-.27,0-.56a9.65,9.65,0,0,0-1.85-4.53,95.35,95.35,0,0,0-9-9.54c-1.32-1.26-2.39-2.34-3.3-3.22l2.21-.46c1.91,1.5,4.5,3.64,8,6.86,4.21,3.89,6.47,6.37,8.91,5.91,1.59-.31.93-1.61,4.8-4.76a43.89,43.89,0,0,1,7.76-5.3l.95-.48a28,28,0,0,1,4.83-2,25.82,25.82,0,0,1,7.47-1A13.27,13.27,0,0,1,1438,491.4Z"/><path class="cls-1" d="M1407.28,463.86c4.41,2.9-4.94,7.69-7.33,9.65-5.19,4.25-9.2,6.88-11.62,8.95l-1.75-2,13.08-11.11h-20.58v-2.85C1392.84,466.49,1402.35,460.63,1407.28,463.86Z"/><path class="cls-1" d="M1399.56,516l2.61.68a53.18,53.18,0,0,0-3.89,9.26c-2.34,7-3.24,14.88-9.35,20.5a22.19,22.19,0,0,1-7.22,4.27l-.88-2.51a8.63,8.63,0,0,0,3.63-2,7.17,7.17,0,0,0,1.21-1.42s0,0,0,0a5.11,5.11,0,0,0,.86-1.14,5.41,5.41,0,0,0,2-2.94s0,0,0,0a6.29,6.29,0,0,0,.41-1.88c.79-3.29-1-7.31-5.37-7.31a5.25,5.25,0,0,0-4.76,2.61,4.86,4.86,0,0,1,0-5.6,6.42,6.42,0,0,1,3-2.15,9.26,9.26,0,0,1,5-.54,8.94,8.94,0,0,1,4,1.85c.51.39,1.37,2.15,2.32,1.79a1,1,0,0,0,.51-.75C1394.74,524.22,1397.31,520.14,1399.56,516Z"/><path class="cls-1" d="M1390.5,491.47l-2.21.46c-2.25-2.16-3.53-3.12-5-2.86a3.38,3.38,0,0,0-1.82,1.07l-3-1a6,6,0,0,0,1.07-1.9c.69-2.33-2.93-4.41-5.1-6.43-4.18-3.88-6.26-5.82-6.44-6,0,0-3.82-3.49-11.81-10.69-.08-.07-.31-.29-.23-.44.3-.61,5.05.73,9.63,1.57a97.26,97.26,0,0,0,11.11,1.14c.8,0,1.59.06,2.36.06v2.85h-12.18l15.78,14.43,3.9-3.32,1.75,2c-1.65,1.42-2.56,2.57-2.58,3.79C1385.7,488,1386.79,488.56,1390.5,491.47Z"/><path class="cls-1" d="M1380.82,548.2l.88,2.51a25.55,25.55,0,0,1-13.55,1.22,22.54,22.54,0,0,1-16-12.17c-6-13.25,7.63-29.55,19.63-44,1.54-1.85,4.95-4.34,6.74-6.68l3,1-.3.32a172.67,172.67,0,0,0-12.87,14.67c-4.83,6.43-9,13.53-9.13,21.28a25.24,25.24,0,0,0,1.17,8.29,20.75,20.75,0,0,0,4.48,8.14,16.13,16.13,0,0,0,7.17,5.06,14.31,14.31,0,0,0,7.53.62C1379.87,548.43,1380.32,548.34,1380.82,548.2Z"/><path class="cls-1" d="M1317.95,531.22q-3.59,6.13-8.92,8.28t-14.88,2.15a39.55,39.55,0,0,1-17.59-3.72,27.35,27.35,0,0,1-11.73-10.59,30.16,30.16,0,0,1-4.13-15.87,22.63,22.63,0,0,1,2.71-11.12,31.77,31.77,0,0,1,6.39-8.29,63.72,63.72,0,0,1,7.85-6.14,46.47,46.47,0,0,0,4.67-3.29h-30.85l.71-.7q4.29-2.5,6-3.56a24.86,24.86,0,0,0,3.42-2.52q1.68-1.46,4.84-3.9,1.2,2.36,6.92,4.79a32.44,32.44,0,0,0,12.84,2.44H1314v3h-18.45q-3.07,0-9.3,3.2a33.4,33.4,0,0,0-11.23,9.77q-5,6.56-5,16.28,0,4.48,3.58,10.39A31.3,31.3,0,0,0,1283.91,532a28.42,28.42,0,0,0,15.58,4.26,30.26,30.26,0,0,0,7.26-.72,41.92,41.92,0,0,0,6.43-2.34Q1316.79,531.62,1317.95,531.22Z"/><path class="cls-1" d="M1244,511l-2,29.45h-8.25q.89-13.42.89-27.29v-5q0-11-4.71-14.65a15.71,15.71,0,0,0-9.72-3.67c-4.72,0-8.28,1.66-10.69,5a26.49,26.49,0,0,0-4.59,12.17,122,122,0,0,0-1,16.58v16.31h-8.37v-37.5q0-10-10.67-15.71,4.4-.23,12.48-.76c5.39-.33,8.21-.52,8.44-.54s.28.38.28.88a23.75,23.75,0,0,1-.79,4.19,23.07,23.07,0,0,0-.79,5.17Q1213.7,485,1222.89,485,1244,485,1244,511Z"/><path class="cls-1" d="M1157,533.56a20.57,20.57,0,0,1-6.64,4.55,18.94,18.94,0,0,1-6.58,1.08,33.25,33.25,0,0,1-11.82-1.81,16.24,16.24,0,0,1-7.47-5.52,23.94,23.94,0,0,1-3.9-9.47,70.3,70.3,0,0,1-1.18-13.93,28.75,28.75,0,0,1,2.45-11.8,21.62,21.62,0,0,1,6.92-8.84,16.73,16.73,0,0,1,10.21-3.31h24.37v35.64q0,15.14,9.83,15.14a4.15,4.15,0,0,0,2-.68c.78-.46,1.56-1,2.34-1.46a17.21,17.21,0,0,1,2.4-1.33,9.65,9.65,0,0,1,3-.72,31.26,31.26,0,0,1-6.56,6.11,13.47,13.47,0,0,1-7.46,2,12.86,12.86,0,0,1-5.51-1.26,23.7,23.7,0,0,1-4.65-2.82A14.46,14.46,0,0,1,1157,533.56Zm-2.65-22.8q.65-10.06.65-15.72c0-3-.69-5.11-2.07-6.24s-3.71-1.69-7-1.69a12.87,12.87,0,0,0-9,3.52,22.58,22.58,0,0,0-5.87,8.95,31,31,0,0,0-2,10.91q0,14.34,5.53,19.35t9.2,5.44a18.23,18.23,0,0,0,6.48-1.76q3.59-1.62,3.6-4.16c0-.45,0-1.1-.07-2s-.07-1.5-.07-1.91Q1153.65,520.8,1154.31,510.75Z"/><path class="cls-1" d="M1106.35,537.22a26.88,26.88,0,0,1,4.89-.78,11,11,0,0,1-4.93,3.78,23.93,23.93,0,0,1-7.18.83,18.44,18.44,0,0,1-10.57-3.18,61.09,61.09,0,0,1-10.76-10q-6-6.83-7.92-8.72a6.29,6.29,0,0,0-4.63-1.91c-.07.64-.17,1.75-.26,3.33s-.17,3.46-.17,5.62a69.16,69.16,0,0,0,1.28,14.16h-11.94q.21-3,.9-9.2c.45-4.17.8-7.65,1-10.43s.36-5.77.36-9q0-19.19-8.67-29.82,2,.84,6.94.84a249.5,249.5,0,0,0,25.53-2q8.56,0,13.72,4.24t5.16,9.88a12.24,12.24,0,0,1-3.24,8.54,25.89,25.89,0,0,1-7.75,5.75,71.79,71.79,0,0,1-9.78,3.92c-3.5,1.12-5.38,1.74-5.61,1.87a18.9,18.9,0,0,0,5.08,2.7c2.29.87,3.9,1.54,4.84,2a7.69,7.69,0,0,1,2.75,2.62,55.09,55.09,0,0,0,8.87,10q5.77,5.3,9,5.3A9.34,9.34,0,0,0,1106.35,537.22Zm-23.41-33q6.55-5.26,6.55-10a7.11,7.11,0,0,0-3-5.77q-2.72-1.8-8.5-2.47a31.39,31.39,0,0,0-4.76-.28q-5.89,0-8.21,2.5t-2.33,7.33a80.12,80.12,0,0,0,.86,9.26c.58,4.28.93,7.43,1,9.47Q1076.39,509.43,1082.94,504.18Z"/><path class="cls-1" d="M1039.72,480.76l-2,6.05q-.28.7-.28,14.26v37.65H1029V530.8a56.61,56.61,0,0,0-6.76,4,43.05,43.05,0,0,1-7.14,4.05,19.56,19.56,0,0,1-7.57,1.29q-8,0-12.75-3.15a16.85,16.85,0,0,1-6.7-8.12,29.92,29.92,0,0,1-1.9-10.78,32.46,32.46,0,0,1,1.42-9.89,67.69,67.69,0,0,1,3.47-8.74q2-4.21,2-5a7.29,7.29,0,0,0,.21-1.11,15.66,15.66,0,0,0,.21-2.5,16.75,16.75,0,0,0-3.77-10.53h16.58q-.95,2.5-4.77,11.25t-5.79,14.36a28.69,28.69,0,0,0-2,9,16.11,16.11,0,0,0,2.94,9.4,21.07,21.07,0,0,0,7.4,6.63,18.32,18.32,0,0,0,8.7,2.42,40,40,0,0,0,7.13-2,25.94,25.94,0,0,0,9-5.63V496.61a24,24,0,0,0-.47-5.57,22.39,22.39,0,0,0-3.24-5.85q-2.77-4-3-4.44Z"/><path class="cls-1" d="M956.91,533.56a20.59,20.59,0,0,1-6.65,4.55,18.94,18.94,0,0,1-6.58,1.08,33.19,33.19,0,0,1-11.81-1.81,16.14,16.14,0,0,1-7.47-5.52,24,24,0,0,1-3.91-9.47,71.1,71.1,0,0,1-1.18-13.93,28.92,28.92,0,0,1,2.45-11.8,21.64,21.64,0,0,1,6.93-8.84,16.68,16.68,0,0,1,10.21-3.31h24.37v35.64q0,15.14,9.82,15.14a4.19,4.19,0,0,0,2-.68c.77-.46,1.55-1,2.34-1.46a16.53,16.53,0,0,1,2.39-1.33,9.72,9.72,0,0,1,3-.72,31.28,31.28,0,0,1-6.57,6.11,13.43,13.43,0,0,1-7.45,2,12.94,12.94,0,0,1-5.52-1.26,23.61,23.61,0,0,1-4.64-2.82A14.46,14.46,0,0,1,956.91,533.56Zm-2.66-22.8q.66-10.06.65-15.72c0-3-.69-5.11-2.06-6.24s-3.71-1.69-7-1.69a12.87,12.87,0,0,0-9,3.52,22.49,22.49,0,0,0-5.89,8.95,31,31,0,0,0-2,10.91q0,14.34,5.53,19.35t9.2,5.44a18.17,18.17,0,0,0,6.48-1.76q3.59-1.62,3.6-4.16c0-.45,0-1.1-.07-2s-.06-1.5-.06-1.91Q953.61,520.8,954.26,510.75Z"/><path class="cls-1" d="M909.47,531.22q-3.59,6.13-8.92,8.28t-14.88,2.15a39.55,39.55,0,0,1-17.59-3.72,27.35,27.35,0,0,1-11.73-10.59,30.26,30.26,0,0,1-4.13-15.87,22.74,22.74,0,0,1,2.71-11.12,31.77,31.77,0,0,1,6.39-8.29,63.83,63.83,0,0,1,7.86-6.14,47.06,47.06,0,0,0,4.66-3.29H843l.71-.7q4.29-2.5,6-3.56a24.16,24.16,0,0,0,3.41-2.52q1.68-1.46,4.85-3.9,1.19,2.36,6.92,4.79a32.37,32.37,0,0,0,12.84,2.44h27.82v3H887.12q-3.07,0-9.29,3.2a33.33,33.33,0,0,0-11.24,9.77q-5,6.56-5,16.28,0,4.48,3.58,10.39A31.3,31.3,0,0,0,875.44,532,28.45,28.45,0,0,0,891,536.29a30.38,30.38,0,0,0,7.26-.72,41.44,41.44,0,0,0,6.42-2.34Q908.31,531.62,909.47,531.22Z"/><path class="cls-1" d="M832.18,512.58q4.6,2.35,4.61,8.72a15.13,15.13,0,0,1-6.94,13.05,28.27,28.27,0,0,1-16.59,4.84A28,28,0,0,1,801.57,537a22.32,22.32,0,0,1-7.6-5.35,31.47,31.47,0,0,1-4.64-6.76q-1.8-3.59-3.19-6.49,2.29-.45,6.81-1.7a48.47,48.47,0,0,0,8.47-3.19c-.35.8-.76,1.71-1.22,2.74s-.92,2.08-1.33,3.18a8,8,0,0,0-.61,2.57,10.85,10.85,0,0,0,2.29,6.9,14.58,14.58,0,0,0,5.79,4.44,17.43,17.43,0,0,0,6.92,1.51,14.22,14.22,0,0,0,9.49-3.45,10.89,10.89,0,0,0,4.07-8.67,7.5,7.5,0,0,0-4.26-7.21,83.45,83.45,0,0,0-13.7-4.94q-9.44-2.77-14.26-6.29t-4.83-10.71a10.18,10.18,0,0,1,3.55-7.49,24.77,24.77,0,0,1,9.11-5.31,33.83,33.83,0,0,1,11.11-1.92,21.18,21.18,0,0,1,10.69,2.92A25.51,25.51,0,0,1,832.4,489q3.08,4.32,3.08,7.91,0,.42-5.42,3.36c-3.62,2-6.37,3.58-8.27,4.85,1.54-3.19,2.36-4.91,2.45-5.14s.22-1.46.43-3.67q0-5.88-3.61-8.92a12.76,12.76,0,0,0-8.5-3,15.18,15.18,0,0,0-8.73,3.08c-2.94,2.06-4.41,4.54-4.41,7.45q0,6.87,4.67,9.43t14.07,4.25Q827.56,510.24,832.18,512.58Z"/><path class="cls-1" d="M775.75,498.94H738.1v-2.47l25.68-.15a18.15,18.15,0,0,0-2.47-6.63q-2.21-4-8.35-4.18h-.73l-.16-3c.47,0,1,0,1.46,0a27.06,27.06,0,0,1,13.94,3.65Q773.71,489.77,775.75,498.94Z"/><path class="cls-1" d="M777.2,526.05a27.47,27.47,0,0,1-8.79,9.83q-5,3.16-12.7,3.16a23.45,23.45,0,0,1-13.47-4.12,28.71,28.71,0,0,1-9.51-10.78,29.74,29.74,0,0,1-3.43-13.81,33.55,33.55,0,0,1,1.16-8.07,34.1,34.1,0,0,1,3.84-9.14,22.59,22.59,0,0,1,7.5-7.57,20.61,20.61,0,0,1,10.27-3l.16,3A14.6,14.6,0,0,0,743,489a13.86,13.86,0,0,0-4.94,7.5v2.47H738v9.23a78.37,78.37,0,0,0,3.24,10,28.87,28.87,0,0,0,7.28,10.13q5.22,5,13.71,5a17.41,17.41,0,0,0,6.17-.81,16.42,16.42,0,0,0,4.38-2.92A45,45,0,0,1,777.2,526.05Z"/><path class="cls-1" d="M720.53,540.49a98.35,98.35,0,0,1-10.39.41h-5.21l-30-31.86-5.46-2.75v35l-7.78-.42v-49c0-6.86-.36-11.93-1.08-15.24s-1.67-5.51-2.85-6.67a24.15,24.15,0,0,0-5.91-3.77q3.1.25,7.07.28a13.13,13.13,0,0,1,5.53.88,12.81,12.81,0,0,1,3.71,3.91q11-7.21,19.62-7.21a20.7,20.7,0,0,1,8.25,1.69,15.91,15.91,0,0,1,6.42,4.89,11.74,11.74,0,0,1,2.49,7.4,18.72,18.72,0,0,1-3.72,11.5,31.61,31.61,0,0,1-8.6,8,68.58,68.58,0,0,1-10.18,5.22c-3.53,1.45-5.3,2.2-5.33,2.22a38.55,38.55,0,0,1,9.77,6.6q3.72,3.61,9.49,10.3a90.92,90.92,0,0,0,11,10.94A55,55,0,0,0,720.53,540.49ZM696,481.32a12.66,12.66,0,0,0-3.3-8.69,10.6,10.6,0,0,0-8.22-3.71,19.86,19.86,0,0,0-6.69,1,26.5,26.5,0,0,0-5.58,2.8c-1.85,1.2-2.9,1.86-3.15,2v29.13q12.89-4.43,19.91-9.6T696,481.32Z"/><path class="cls-9" d="M687.77,464a20.7,20.7,0,0,1,8.25,1.69,15.91,15.91,0,0,1,6.42,4.89,11.74,11.74,0,0,1,2.49,7.4,18.72,18.72,0,0,1-3.72,11.5,31.61,31.61,0,0,1-8.6,8,68.58,68.58,0,0,1-10.18,5.22c-3.53,1.45-5.3,2.2-5.33,2.22a38.55,38.55,0,0,1,9.77,6.6q3.72,3.61,9.49,10.3a90.92,90.92,0,0,0,11,10.94,55,55,0,0,0,13.19,7.66,98.35,98.35,0,0,1-10.39.41h-5.21l-30-31.86-5.46-2.75v35l-7.78-.42v-49c0-6.86-.36-11.93-1.08-15.24s-1.67-5.51-2.85-6.67a24.15,24.15,0,0,0-5.91-3.77q3.1.25,7.07.28a13.13,13.13,0,0,1,5.53.88,12.81,12.81,0,0,1,3.71,3.91Q679.12,464,687.77,464Z"/><path class="cls-9" d="M738.1,498.94H738v9.23a78.37,78.37,0,0,0,3.24,10,28.87,28.87,0,0,0,7.28,10.13q5.22,5,13.71,5a17.41,17.41,0,0,0,6.17-.81,16.42,16.42,0,0,0,4.38-2.92,45,45,0,0,1,4.46-3.48,27.47,27.47,0,0,1-8.79,9.83q-5,3.16-12.7,3.16a23.45,23.45,0,0,1-13.47-4.12,28.71,28.71,0,0,1-9.51-10.78,29.74,29.74,0,0,1-3.43-13.81,33.55,33.55,0,0,1,1.16-8.07,34.1,34.1,0,0,1,3.84-9.14,22.59,22.59,0,0,1,7.5-7.57,20.61,20.61,0,0,1,10.27-3c.47,0,1,0,1.46,0a27.06,27.06,0,0,1,13.94,3.65q6.23,3.64,8.28,12.8Z"/><path class="cls-9" d="M793.32,486.08a24.77,24.77,0,0,1,9.11-5.31,33.83,33.83,0,0,1,11.11-1.92,21.18,21.18,0,0,1,10.69,2.92A25.51,25.51,0,0,1,832.4,489q3.08,4.32,3.08,7.91,0,.42-5.42,3.36c-3.62,2-6.37,3.58-8.27,4.85,1.54-3.19,2.36-4.91,2.45-5.14s.22-1.46.43-3.67q0-5.88-3.61-8.92a12.76,12.76,0,0,0-8.5-3,15.18,15.18,0,0,0-8.73,3.08c-2.94,2.06-4.41,4.54-4.41,7.45q0,6.87,4.67,9.43t14.07,4.25q9.4,1.68,14,4t4.61,8.72a15.13,15.13,0,0,1-6.94,13.05,28.27,28.27,0,0,1-16.59,4.84A28,28,0,0,1,801.57,537a22.32,22.32,0,0,1-7.6-5.35,31.47,31.47,0,0,1-4.64-6.76q-1.8-3.59-3.19-6.49,2.29-.45,6.81-1.7a48.47,48.47,0,0,0,8.47-3.19c-.35.8-.76,1.71-1.22,2.74s-.92,2.08-1.33,3.18a8,8,0,0,0-.61,2.57,10.85,10.85,0,0,0,2.29,6.9,14.58,14.58,0,0,0,5.79,4.44,17.43,17.43,0,0,0,6.92,1.51,14.22,14.22,0,0,0,9.49-3.45,10.89,10.89,0,0,0,4.07-8.67,7.5,7.5,0,0,0-4.26-7.21,83.45,83.45,0,0,0-13.7-4.94q-9.44-2.77-14.26-6.29t-4.83-10.71A10.18,10.18,0,0,1,793.32,486.08Z"/><path class="cls-9" d="M849.74,478.37a24.16,24.16,0,0,0,3.41-2.52q1.68-1.46,4.85-3.9,1.19,2.36,6.92,4.79a32.37,32.37,0,0,0,12.84,2.44h27.82v3H887.12q-3.07,0-9.29,3.2a33.33,33.33,0,0,0-11.24,9.77q-5,6.56-5,16.28,0,4.48,3.58,10.39A31.3,31.3,0,0,0,875.44,532,28.45,28.45,0,0,0,891,536.29a30.38,30.38,0,0,0,7.26-.72,41.44,41.44,0,0,0,6.42-2.34q3.61-1.62,4.77-2-3.59,6.13-8.92,8.28t-14.88,2.15a39.55,39.55,0,0,1-17.59-3.72,27.35,27.35,0,0,1-11.73-10.59,30.26,30.26,0,0,1-4.13-15.87,22.74,22.74,0,0,1,2.71-11.12,31.77,31.77,0,0,1,6.39-8.29,63.83,63.83,0,0,1,7.86-6.14,47.06,47.06,0,0,0,4.66-3.29H843l.71-.7Q848,479.42,849.74,478.37Z"/><path class="cls-9" d="M956.92,533.55s0,0,0,0"/><path class="cls-9" d="M956.91,533.56a20.59,20.59,0,0,1-6.65,4.55,18.94,18.94,0,0,1-6.58,1.08,33.19,33.19,0,0,1-11.81-1.81,16.14,16.14,0,0,1-7.47-5.52,24,24,0,0,1-3.91-9.47,71.1,71.1,0,0,1-1.18-13.93,28.92,28.92,0,0,1,2.45-11.8,21.64,21.64,0,0,1,6.93-8.84,16.68,16.68,0,0,1,10.21-3.31h24.37v35.64q0,15.14,9.82,15.14a4.19,4.19,0,0,0,2-.68c.77-.46,1.55-1,2.34-1.46a16.53,16.53,0,0,1,2.39-1.33,9.72,9.72,0,0,1,3-.72,31.28,31.28,0,0,1-6.57,6.11,13.43,13.43,0,0,1-7.45,2,12.94,12.94,0,0,1-5.52-1.26,23.61,23.61,0,0,1-4.64-2.82A14.46,14.46,0,0,1,956.91,533.56Z"/><path class="cls-9" d="M993.16,494.48v0"/><path class="cls-9" d="M993.16,494.48a7.29,7.29,0,0,0,.21-1.11,15.66,15.66,0,0,0,.21-2.5,16.75,16.75,0,0,0-3.77-10.53h16.58q-.95,2.5-4.77,11.25t-5.79,14.36a28.69,28.69,0,0,0-2,9,16.11,16.11,0,0,0,2.94,9.4,21.07,21.07,0,0,0,7.4,6.63,18.32,18.32,0,0,0,8.7,2.42,40,40,0,0,0,7.13-2,25.94,25.94,0,0,0,9-5.63V496.61a24,24,0,0,0-.47-5.57,22.39,22.39,0,0,0-3.24-5.85q-2.77-4-3-4.44h17.43l-2,6.05q-.28.7-.28,14.26v37.65H1029V530.8a56.61,56.61,0,0,0-6.76,4,43.05,43.05,0,0,1-7.14,4.05,19.56,19.56,0,0,1-7.57,1.29q-8,0-12.75-3.15a16.85,16.85,0,0,1-6.7-8.12,29.92,29.92,0,0,1-1.9-10.78,32.46,32.46,0,0,1,1.42-9.89,67.69,67.69,0,0,1,3.47-8.74Q993.14,495.28,993.16,494.48Z"/><path class="cls-9" d="M1054.72,482.76a249.5,249.5,0,0,0,25.53-2q8.56,0,13.72,4.24t5.16,9.88a12.24,12.24,0,0,1-3.24,8.54,25.89,25.89,0,0,1-7.75,5.75,71.79,71.79,0,0,1-9.78,3.92c-3.5,1.12-5.38,1.74-5.61,1.87a18.9,18.9,0,0,0,5.08,2.7c2.29.87,3.9,1.54,4.84,2a7.69,7.69,0,0,1,2.75,2.62,55.09,55.09,0,0,0,8.87,10q5.77,5.3,9,5.3a9.34,9.34,0,0,0,3-.38,26.88,26.88,0,0,1,4.89-.78,11,11,0,0,1-4.93,3.78,23.93,23.93,0,0,1-7.18.83,18.44,18.44,0,0,1-10.57-3.18,61.09,61.09,0,0,1-10.76-10q-6-6.83-7.92-8.72a6.29,6.29,0,0,0-4.63-1.91c-.07.64-.17,1.75-.26,3.33s-.17,3.46-.17,5.62a69.16,69.16,0,0,0,1.28,14.16h-11.94q.21-3,.9-9.2c.45-4.17.8-7.65,1-10.43s.36-5.77.36-9q0-19.19-8.67-29.82Q1049.76,482.76,1054.72,482.76Z"/><path class="cls-9" d="M1378.83,534.07a4.86,4.86,0,0,1,0-5.6,6.42,6.42,0,0,1,3-2.15,9.26,9.26,0,0,1,5-.54,8.94,8.94,0,0,1,4,1.85c.51.39,1.37,2.15,2.32,1.79a1,1,0,0,0,.51-.75c1.1-4.47,3.67-8.54,5.92-12.69.53-1,1-1.93,1.49-2.9a13.21,13.21,0,0,0,1.4-3.32c0-.05,0-.27,0-.56a9.65,9.65,0,0,0-1.85-4.53,95.35,95.35,0,0,0-9-9.54c-1.32-1.26-2.39-2.34-3.3-3.22-2.25-2.16-3.53-3.12-5-2.86a3.38,3.38,0,0,0-1.82,1.07l-.3.32a172.67,172.67,0,0,0-12.87,14.67c-4.83,6.43-9,13.53-9.13,21.28a25.24,25.24,0,0,0,1.17,8.29,20.75,20.75,0,0,0,4.48,8.14,16.13,16.13,0,0,0,7.17,5.06,14.31,14.31,0,0,0,7.53.62c.35-.08.8-.18,1.3-.31"/><polygon class="cls-9" points="1386.57 480.45 1382.67 483.77 1366.89 469.34 1379.08 469.34 1399.65 469.34 1386.57 480.45"/><path class="cls-9" d="M1397,568.71l-.12.08a2.31,2.31,0,0,1-2.54-.77c-4.57-7.56,12.05-18.17,15.65-24.07a22.35,22.35,0,0,0,2.52-16.11,37.74,37.74,0,0,0-6.9-14.58.81.81,0,0,0-1.2,0,22,22,0,0,0-2.1,3.22l-.13.23a53.18,53.18,0,0,0-3.89,9.26c-2.34,7-3.24,14.88-9.35,20.5a22.19,22.19,0,0,1-7.22,4.27,25.55,25.55,0,0,1-13.55,1.22,22.54,22.54,0,0,1-16-12.17c-6-13.25,7.63-29.55,19.63-44,1.54-1.85,4.95-4.34,6.74-6.68a6,6,0,0,0,1.07-1.9c.69-2.33-2.93-4.41-5.1-6.43-4.18-3.88-6.26-5.82-6.44-6,0,0-3.82-3.49-11.81-10.69-.08-.07-.31-.29-.23-.44.3-.61,5.05.73,9.63,1.57a97.26,97.26,0,0,0,11.11,1.14c.8,0,1.59.06,2.36.06,13.76,0,23.28-5.86,28.2-2.63,4.41,2.9-4.94,7.69-7.33,9.65-5.19,4.25-9.2,6.88-11.62,8.95-1.65,1.42-2.56,2.57-2.58,3.79,0,1.74,1,2.31,4.76,5.22,1.91,1.5,4.5,3.64,8,6.86,4.21,3.89,6.47,6.37,8.91,5.91,1.59-.31.93-1.61,4.8-4.76a43.89,43.89,0,0,1,7.76-5.3l.95-.48a28,28,0,0,1,4.83-2,25.82,25.82,0,0,1,7.47-1,13.27,13.27,0,0,1,4.77.64c4.2,1.54,5.8,5.65,2.28,8.66a7.6,7.6,0,0,1-6.26,1.53,25.11,25.11,0,0,1-3-1,19.92,19.92,0,0,0-11.55-.27,18.45,18.45,0,0,0-7.71,4.46c-3.12,3-.77,5.32,2.21,7.79a30.12,30.12,0,0,1,7.57,8.84c3.54,6.77,2.79,14.85-1,21.53s-10.3,12-17.73,15.84c-1.87,1-4.49,2.08-5.52,3.85a1.73,1.73,0,0,0-.18.57"/><line class="cls-9" x1="1397.13" y1="563.24" x2="1397.13" y2="563.25"/></g><g id="_Group_8" data-name="&lt;Group&gt;"><path class="cls-4" d="M733.88,320.5a80.73,80.73,0,0,1,2,32.13c-1.05,6.87-2.9,18.83-11.94,30.18-7.13,8.94-15.32,13.21-21.16,16.26a78.53,78.53,0,0,1-26.45,8.23,86.45,86.45,0,0,1-25.86-1,95.13,95.13,0,0,1-38.59-16.85c-10-7.37-17.44-19.23-23.09-30.1-2.6-5-4.81-10.2-7.32-15.21a35,35,0,0,1-3.3-9.95c2.57,8.63,10.33,16.63,21.12,20.53,16.1,5.82,32.83.33,37.39-12.27a20,20,0,0,0,.6-11.39c2,7.57-.33,16.51-6.73,21-2.23,1.57-5,2.78-6,5.32-1.08,2.84.66,5.92,2.49,8.34,13,17.18,52.76,40,70.81,17.91,4.56-5.6,5.78-13.42,4.39-20.51s-5.12-13.51-9.56-19.21c-26.69-34.27-77.34-37.8-97.29-78.55-7.84-16-7.72-30.58-7.59-37.09.17-8.69.55-28.9,15.17-47.22,25.49-31.93,71.63-29.93,99.4-4.12,5.26,4.88,12.65,12.46,16.33,19s5.49,12.64,5.05,20.25-6.34,18.27-13.29,21.38-16.29,1.63-23.09-1.94c-12.35-6.46-15.17-19.14-16.53-32.12-1.1-10.51-2.65-24.16-12.36-30.52-13.44-8.82-31.8,0-39.45,12.24-2,3.24-3.57,6.92-3.51,10.73.09,5.33,3.24,10.1,6.64,14.21,18.76,22.78,46.23,35.35,69.05,53.29,9.81,7.71,16.93,13.31,24.49,22.72C720.78,292.61,729.43,303.6,733.88,320.5Z"/><path class="cls-1" d="M637.22,331.08a20,20,0,0,1-.6,11.39c-4.56,12.6-21.29,18.08-37.39,12.27-10.79-3.9-18.54-11.9-21.12-20.53a24.66,24.66,0,0,1-.14-7.54c1.35-9.21,9.3-16.65,18.34-18.84s18.79.3,26.65,5.29c6.6,4.18,12.23,10.36,14.25,17.91C637.21,331,637.22,331.06,637.22,331.08Z"/></g><path class="cls-10" d="M465.59,338.6"/><path class="cls-11" d="M2111.23,256.55"/><path class="cls-1" d="M722.26,200.66c6.31,16,.44,33.3-13.11,38.64S679.51,236,673.21,220s-.44-33.3,13.11-38.64S716,184.65,722.26,200.66Z"/><path class="cls-6" d="M1819,262.26c3.63-1,5.72-3.39,5.16-7.13a7.06,7.06,0,0,0-1.34-3.4c-1.66-2.08-4.44-2.23-6.82-1.4a7.09,7.09,0,0,0-3.67,2.87,6.51,6.51,0,0,0-.92,2.81,6,6,0,0,0,.65,3.79,5.74,5.74,0,0,0,3.34,2.64A6.44,6.44,0,0,0,1819,262.26Z"/><path class="cls-5" d="M1812.78,271.59a10.79,10.79,0,0,0-3.48-9,15.67,15.67,0,0,0-10.73-3.78,12.45,12.45,0,0,0-8.1,2.72c-2.52,2.22-3.51,5.63-3.86,8.9a19.46,19.46,0,0,0,.35,7,11.46,11.46,0,0,0,3.64,6,14,14,0,0,0,7,2.79,15.77,15.77,0,0,0,7.14-.43c4.6-1.51,6.66-5.79,7.52-10.11A26.47,26.47,0,0,0,1812.78,271.59Z"/><path class="cls-1" d="M918.61,627.72a24,24,0,0,1,11.78-8.29,49.81,49.81,0,0,1,15.6-2.36q4.08,0,6.72.23t4.63.54a21.93,21.93,0,0,0,2.6.31,4.67,4.67,0,0,0,2.68-1.09v19.41s-.57-.31-1.81-.92a35.68,35.68,0,0,0-4.1-1.69,12.63,12.63,0,0,0-4.1-.77h-30q-2.47,3.48-2.47,11a22.4,22.4,0,0,0,2.74,10.38,23,23,0,0,0,20.92,12.29,20.39,20.39,0,0,0,11.9-3.46,21.32,21.32,0,0,0,6.9-7q1.38,1.14,1.38,1.67a1.33,1.33,0,0,1-.15.53,1.35,1.35,0,0,0-.14.56q0,1.72-3,4.22a26.82,26.82,0,0,1-8,4.35,30.38,30.38,0,0,1-10.66,1.85,30.06,30.06,0,0,1-10.6-1.91,28.84,28.84,0,0,1-9.08-5.4,25.13,25.13,0,0,1-6.2-8.24A23.9,23.9,0,0,1,914,643.58Q914,633.65,918.61,627.72Zm4.52,4,9.77.1,10.42.1a69.81,69.81,0,0,0,8.07-.37,21.17,21.17,0,0,0,5.15-1.18,39.87,39.87,0,0,0,5-2.5,15.54,15.54,0,0,0-7.38-6.37,35.33,35.33,0,0,0-10.33-2.24Q928.35,619.24,923.13,631.72Z"/><path class="cls-1" d="M971.79,623.19a11.15,11.15,0,0,1,4.1-2.39,15.23,15.23,0,0,1,5-.86,9.53,9.53,0,0,1,4.82,1.32,11.45,11.45,0,0,1,3.68,3.26,6.3,6.3,0,0,1,1.39,3.56,10.08,10.08,0,0,1-2.44,1.52q-2.44,1.32-3.73,2.18,1-2.16,1.1-2.32a15.9,15.9,0,0,0,.2-1.65,5,5,0,0,0-1.63-4,5.76,5.76,0,0,0-3.83-1.37,6.85,6.85,0,0,0-3.94,1.39,4,4,0,0,0-2,3.36q0,3.1,2.1,4.25a21.5,21.5,0,0,0,6.34,1.91,24,24,0,0,1,6.32,1.81,4,4,0,0,1,2.08,3.93,6.82,6.82,0,0,1-3.13,5.88,14.16,14.16,0,0,1-12.74,1.2,10.12,10.12,0,0,1-3.43-2.41,14.23,14.23,0,0,1-2.09-3q-.82-1.62-1.44-2.92,1-.21,3.07-.77a21.87,21.87,0,0,0,3.82-1.44l-.56,1.23q-.32.69-.6,1.44a3.62,3.62,0,0,0-.28,1.16,4.9,4.9,0,0,0,1,3.11,6.56,6.56,0,0,0,2.61,2,7.82,7.82,0,0,0,3.12.68,6.41,6.41,0,0,0,4.28-1.56,4.91,4.91,0,0,0,1.83-3.9,3.38,3.38,0,0,0-1.92-3.25,38.28,38.28,0,0,0-6.17-2.23,21.27,21.27,0,0,1-6.43-2.83,5.58,5.58,0,0,1-2.17-4.82A4.59,4.59,0,0,1,971.79,623.19Z"/><path class="cls-1" d="M997.2,619.71a11,11,0,0,0,1.54-1.13q.75-.66,2.18-1.75.54,1.06,3.12,2.16a14.65,14.65,0,0,0,5.78,1.1h12.54v1.36H1014a10.57,10.57,0,0,0-4.19,1.44,15.09,15.09,0,0,0-5.06,4.4,11.77,11.77,0,0,0-2.25,7.34,9.39,9.39,0,0,0,1.61,4.68,14.11,14.11,0,0,0,4.63,4.59,12.81,12.81,0,0,0,7,1.92,13.53,13.53,0,0,0,3.27-.33,18.37,18.37,0,0,0,2.9-1.05q1.63-.73,2.15-.91a8.34,8.34,0,0,1-4,3.73,18.52,18.52,0,0,1-6.7,1,17.81,17.81,0,0,1-7.93-1.67,12.33,12.33,0,0,1-5.29-4.78,13.61,13.61,0,0,1-1.86-7.15,10.23,10.23,0,0,1,1.22-5,14.4,14.4,0,0,1,2.88-3.74,28.93,28.93,0,0,1,3.54-2.76,21.48,21.48,0,0,0,2.1-1.48h-13.9l.32-.32Z"/><path class="cls-1" d="M1042.39,666.85a40.4,40.4,0,0,0,.68-4.68q.36-3.4.64-8.12t.44-10.32q.16-5.6.16-11.28,0-3.28-.16-5.72a11.67,11.67,0,0,0-.64-3.56l-2.76,1.16q-1.8.76-3.08,1.4c-.21,0-.44-.17-.68-.52a1.87,1.87,0,0,1-.36-1.08,1.5,1.5,0,0,1,.08-.48l4-1.24q2.48-.76,5.12-1.68t5.08-1.88a20.92,20.92,0,0,0,3.88-1.92.18.18,0,0,0,.12.2q.12,0,.12.36a9.32,9.32,0,0,0-.8,2.72q-.4,2.08-.68,5t-.48,6.32q-.2,3.44-.32,6.84t-.2,6.44q-.08,3-.08,5.2,0,2.48,0,4.8t.16,4.32q.12,2,.36,3.64a12.71,12.71,0,0,0,.64,2.68,1.86,1.86,0,0,0,.8,1,8.56,8.56,0,0,0,1.48.8,9.39,9.39,0,0,0,1.8.56,8.35,8.35,0,0,0,1.68.2.52.52,0,0,1,.48.28,1,1,0,0,1,.16.44q0,.72-.56.72-1.84.08-3.8.08t-3.84,0l-3.44-.08c-1,0-1.91,0-2.6,0q-2.24,0-4.52.12t-3.24.28q-.72,0-.72-.64a.72.72,0,0,1,.24-.64,1.79,1.79,0,0,1,.64-.24,21.61,21.61,0,0,0,2.68-.52Q1042.31,667.33,1042.39,666.85Z"/><path class="cls-1" d="M1105.43,653.17a12.59,12.59,0,0,1-1.4,5.68,15.56,15.56,0,0,1-3.44,4.36,20.8,20.8,0,0,1-4.76,3.16,38.05,38.05,0,0,1-5.36,2.12,34.23,34.23,0,0,1-5.24,1.2,31.54,31.54,0,0,1-4.36.36,27.44,27.44,0,0,1-5.88-.64,17.66,17.66,0,0,1-5.28-2,11.59,11.59,0,0,1-3.8-3.56,9.31,9.31,0,0,1-1.44-5.28,15.36,15.36,0,0,1,.92-5.52,13.32,13.32,0,0,1,2.64-4.28,21.19,21.19,0,0,1,4.12-3.44,46.56,46.56,0,0,1,5.44-3q-1.92-.88-3.52-1.8a12.35,12.35,0,0,1-2.76-2.12,9.08,9.08,0,0,1-1.84-2.8,9.55,9.55,0,0,1-.68-3.76,11.87,11.87,0,0,1,1.2-5.52,12.55,12.55,0,0,1,3.12-3.92,16.81,16.81,0,0,1,4.32-2.6,31.56,31.56,0,0,1,4.72-1.56,32.2,32.2,0,0,1,4.36-.76q2-.2,3.32-.2a17.92,17.92,0,0,1,4.12.48,10.46,10.46,0,0,1,3.6,1.56,8.33,8.33,0,0,1,2.52,2.76,7.93,7.93,0,0,1,1,4,8.39,8.39,0,0,1-1.2,4.4,15.64,15.64,0,0,1-3,3.64,24,24,0,0,1-4.08,2.92,45.38,45.38,0,0,1-4.24,2.16q2.56,1,5.52,2a29.05,29.05,0,0,1,5.52,2.52,14.2,14.2,0,0,1,4.24,3.8A9.38,9.38,0,0,1,1105.43,653.17Zm-9,3.44a8.09,8.09,0,0,0-1.72-5.2,16.38,16.38,0,0,0-4.24-3.72,27.19,27.19,0,0,0-5.4-2.56l-5.2-1.8a10.8,10.8,0,0,0-2.68,1.92,13.94,13.94,0,0,0-2.16,2.68,14.32,14.32,0,0,0-1.48,3.24,11.79,11.79,0,0,0-.56,3.6,10.76,10.76,0,0,0,1.32,5.48,12,12,0,0,0,3.36,3.76,13.88,13.88,0,0,0,4.48,2.16,17.66,17.66,0,0,0,4.76.68,9.45,9.45,0,0,0,6.8-2.52Q1096.31,661.81,1096.39,656.61ZM1092.47,630a11.54,11.54,0,0,0-2.16-7.32,7.36,7.36,0,0,0-6.16-2.76,5.42,5.42,0,0,0-4.68,2.28,9.41,9.41,0,0,0-1.64,5.64,9.78,9.78,0,0,0,.88,4.4,10.12,10.12,0,0,0,2.12,2.92,9.82,9.82,0,0,0,2.64,1.8q1.4.64,2.44,1a17.86,17.86,0,0,0,2.12-.88,8.18,8.18,0,0,0,2.12-1.48,8,8,0,0,0,1.64-2.32A7.54,7.54,0,0,0,1092.47,630Z"/><path class="cls-1" d="M1150.79,653.17a12.59,12.59,0,0,1-1.4,5.68,15.56,15.56,0,0,1-3.44,4.36,20.8,20.8,0,0,1-4.76,3.16,38.05,38.05,0,0,1-5.36,2.12,34.23,34.23,0,0,1-5.24,1.2,31.54,31.54,0,0,1-4.36.36,27.44,27.44,0,0,1-5.88-.64,17.66,17.66,0,0,1-5.28-2,11.59,11.59,0,0,1-3.8-3.56,9.31,9.31,0,0,1-1.44-5.28,15.36,15.36,0,0,1,.92-5.52,13.32,13.32,0,0,1,2.64-4.28,21.19,21.19,0,0,1,4.12-3.44,46.56,46.56,0,0,1,5.44-3q-1.92-.88-3.52-1.8a12.35,12.35,0,0,1-2.76-2.12,9.08,9.08,0,0,1-1.84-2.8,9.55,9.55,0,0,1-.68-3.76,11.87,11.87,0,0,1,1.2-5.52,12.55,12.55,0,0,1,3.12-3.92,16.81,16.81,0,0,1,4.32-2.6,31.56,31.56,0,0,1,4.72-1.56,32.2,32.2,0,0,1,4.36-.76q2-.2,3.32-.2a17.92,17.92,0,0,1,4.12.48,10.46,10.46,0,0,1,3.6,1.56,8.33,8.33,0,0,1,2.52,2.76,7.93,7.93,0,0,1,1,4,8.39,8.39,0,0,1-1.2,4.4,15.64,15.64,0,0,1-3,3.64,24,24,0,0,1-4.08,2.92,45.38,45.38,0,0,1-4.24,2.16q2.56,1,5.52,2a29.05,29.05,0,0,1,5.52,2.52,14.2,14.2,0,0,1,4.24,3.8A9.38,9.38,0,0,1,1150.79,653.17Zm-9,3.44a8.09,8.09,0,0,0-1.72-5.2,16.38,16.38,0,0,0-4.24-3.72,27.19,27.19,0,0,0-5.4-2.56l-5.2-1.8a10.8,10.8,0,0,0-2.68,1.92,13.94,13.94,0,0,0-2.16,2.68,14.32,14.32,0,0,0-1.48,3.24,11.79,11.79,0,0,0-.56,3.6,10.76,10.76,0,0,0,1.32,5.48A12,12,0,0,0,1123,664a13.88,13.88,0,0,0,4.48,2.16,17.66,17.66,0,0,0,4.76.68,9.45,9.45,0,0,0,6.8-2.52Q1141.67,661.81,1141.75,656.61ZM1137.83,630a11.54,11.54,0,0,0-2.16-7.32,7.36,7.36,0,0,0-6.16-2.76,5.42,5.42,0,0,0-4.68,2.28,9.41,9.41,0,0,0-1.64,5.64,9.78,9.78,0,0,0,.88,4.4,10.12,10.12,0,0,0,2.12,2.92,9.82,9.82,0,0,0,2.64,1.8q1.4.64,2.44,1a17.86,17.86,0,0,0,2.12-.88,8.18,8.18,0,0,0,2.12-1.48,8,8,0,0,0,1.64-2.32A7.54,7.54,0,0,0,1137.83,630Z"/><path class="cls-1" d="M1189.91,670.93a16.49,16.49,0,0,0-2.64-.44q-1.84-.2-4.32-.4t-5.36-.4q-2.88-.2-5.8-.32t-5.64-.2q-2.72-.08-4.8-.08t-3.28.08l-2.2.16q-.92.08-1.56.2t-1.44.2a1,1,0,0,1-.32-.12c-.16-.08-.24-.17-.24-.28a1.62,1.62,0,0,0-.12-.56,2.84,2.84,0,0,1-.16-.6.81.81,0,0,1,.2-.6,3.16,3.16,0,0,1,1-.72l4.8-3.68q2.8-2.16,5.76-4.76t5.92-5.44a58.17,58.17,0,0,0,5.28-5.76,34.18,34.18,0,0,0,3.76-5.76,12.87,12.87,0,0,0,1.52-5.4,20.49,20.49,0,0,0-.68-5.28,14.3,14.3,0,0,0-2-4.52,10.44,10.44,0,0,0-3.36-3.12,9.09,9.09,0,0,0-4.64-1.16,8.76,8.76,0,0,0-4.24,1,12.7,12.7,0,0,0-3.32,2.56,12,12,0,0,0-2.2,3.36,8.53,8.53,0,0,0-.8,3.36,1.71,1.71,0,0,1-.08.6q-.08.2-.48.2a1.84,1.84,0,0,1-1-.44,5.53,5.53,0,0,1-1.12-1.12,9,9,0,0,1-.92-1.48,3.53,3.53,0,0,1-.4-1.6,4.87,4.87,0,0,1,2.12-4,37.35,37.35,0,0,1,6.2-3.64,46.45,46.45,0,0,1,7.2-2.64,25.34,25.34,0,0,1,6.64-1,11.3,11.3,0,0,1,8.6,3.84,13.25,13.25,0,0,1,2.56,4.44,17.33,17.33,0,0,1,.92,5.8,13.59,13.59,0,0,1-1.4,5.84,33.79,33.79,0,0,1-3.68,6,57.83,57.83,0,0,1-5.16,5.88q-2.88,2.88-5.88,5.48t-5.8,4.88l-5,4a24.13,24.13,0,0,0,4,.8,57.41,57.41,0,0,0,8.24.48q3.12,0,6-.08a28.6,28.6,0,0,0,5.28-.6,10.89,10.89,0,0,0,4.16-1.8,8.14,8.14,0,0,0,2.72-3.68.88.88,0,0,1,.32-.16.61.61,0,0,1,.48,0,.94.94,0,0,1,.4.44,1.23,1.23,0,0,1,0,.88,16.88,16.88,0,0,0-.64,2q-.32,1.24-.6,2.6t-.6,2.72q-.32,1.36-.64,2.32Q1191,670.93,1189.91,670.93Z"/><line class="cls-12" x1="966.75" y1="654.03" x2="1022.62" y2="654.03"/></g></g></svg>